<svg width="1920" height="1080" viewBox="0 0 1440 1024" fill="none" xmlns="http://www.w3.org/2000/svg">
<path d="M-315.358 312.392L-323.724 311.772C-325.191 313.143 -327.182 314.305 -328.447 314.992L-357.68 330.865C-359.768 331.998 -363.547 333.64 -365.548 334.481L-360.704 343.403C-359.128 342.383 -356.159 340.607 -353.312 339.061L-323.826 323.052C-321.728 328.877 -320.216 337.396 -321.541 344.915C-323.196 354.088 -327.357 363.476 -338.271 373.252L-327.286 377.037C-317.981 367.315 -312.967 356.481 -311.331 345.762C-309.893 335.887 -312.434 324.568 -314.345 317.577C-314.75 316.076 -315.241 313.966 -315.358 312.392ZM-174.072 239.285L-182.235 243.716C-181.054 245.287 -179.765 247.209 -178.877 248.693C-178.161 249.861 -177.411 251.092 -176.655 252.484L-193.866 261.829C-195.511 262.722 -198.208 263.941 -199.83 264.576L-195.604 272.359C-193.838 271.236 -191.629 269.872 -189.794 268.876L-176.253 261.524C-177.424 269.779 -182.406 281.578 -189.158 290.569L-180.217 293.908C-174.881 285.931 -170.186 274.206 -168.815 266.17C-166.141 270.944 -163.569 275.529 -161.886 278.63C-161.199 279.895 -161.264 280.832 -162.466 281.484C-164.111 282.378 -167.251 283.837 -170.052 284.866L-165.629 291.804C-162.679 290.448 -158.687 288.445 -155.65 286.796C-151.916 284.769 -150.686 281.151 -152.535 277.895C-156.103 271.475 -160.965 262.973 -165.243 255.546L-157.65 251.424C-156.258 250.668 -154.262 249.666 -152.709 248.905L-156.866 241.249C-157.937 241.993 -160.204 243.552 -161.849 244.445L-169.315 248.499C-170.071 247.107 -170.856 245.813 -171.474 244.674C-172.402 242.965 -173.438 240.906 -174.072 239.285ZM-51.9312 185.994L-46.5374 195.928C-44.2993 194.467 -40.1286 192.039 -36.5219 190.08L-2.54333 171.632C0.114217 170.189 3.47866 168.69 5.03161 167.928L-0.362193 157.994C-1.93863 159.014 -4.5853 160.779 -7.55922 162.393L-41.5378 180.842C-44.8281 182.629 -49.5502 184.947 -51.9312 185.994ZM97.9632 79.7017L102.395 87.8642C104.288 86.6726 106.877 85.1031 109.091 83.9007L134.464 70.1242C136.679 68.9217 139.216 67.7084 141.436 66.6669L137.004 58.5044C135.024 59.9889 132.562 61.4896 130.411 62.6577L104.974 76.4686C102.886 77.6023 100.223 78.8844 97.9632 79.7017ZM99.4183 99.8853L103.919 108.174C105.622 107.086 107.958 105.654 109.856 104.623L127.256 95.1753C129.889 100.628 131.39 105.958 130.926 111.289C130.388 116.333 127.951 122.408 124.386 126.556L134.709 127.915C138.795 122.01 140.987 114.429 140.831 108.86C140.704 103.194 139.211 97.1234 136.052 90.3999L151.301 82.1203C153.073 81.1583 155.511 79.9161 157.162 79.1838L152.696 70.958C151.188 72.1044 148.473 73.7426 147.144 74.464L105.699 96.9668C103.737 98.0319 101.42 99.0445 99.4183 99.8853ZM263.539 -5.85658C264.279 -4.94725 265.855 -3.09967 267.805 -0.716967C262.844 3.12345 258.35 6.46484 256.272 7.92038C254.448 9.2385 252.619 10.3957 250.628 11.5584L257.078 19.3627C258.92 17.6251 260.393 16.4155 262.178 14.8732C263.967 13.4918 268.393 10.0239 273.48 6.11476C275.802 9.03257 278.422 12.1981 280.91 15.2713C275.069 19.7536 269.699 23.8978 266.995 25.8578C265.107 27.2103 262.466 29.1359 260.792 30.1268L267.167 37.6437C268.417 36.4739 270.328 34.8628 272.774 32.8794C275.219 30.8959 280.618 26.6541 286.488 22.0741C290.386 26.8395 293.579 30.7589 294.892 32.4221C296.268 34.0509 297.66 36.1625 299.247 38.3319L307.466 31.7395C305.797 30.0239 303.927 28.0896 302.454 26.4318C301.009 24.6765 297.821 20.918 293.992 16.2792C299.079 12.37 303.758 8.76468 306.52 6.60942C308.718 4.92427 311.072 3.07277 312.712 2.01862L306.469 -5.40606C305.098 -4.00662 303.032 -2.22927 300.839 -0.383207C298.301 1.73226 293.593 5.43526 288.414 9.47636C285.828 6.37416 283.306 3.2376 280.956 0.417411C285.761 -3.25666 290.157 -6.62697 292.511 -8.47847C294.272 -9.76223 296.597 -11.5161 297.92 -12.3985L291.901 -19.8629C290.623 -18.5955 288.493 -16.7838 286.675 -15.3048C284.637 -13.625 280.241 -10.2547 275.343 -6.44867C273.291 -9.02119 271.778 -10.9031 271.17 -11.7203C270.029 -13.0671 268.671 -15.1154 267.794 -16.2778L259.663 -9.97836C260.93 -8.70025 262.163 -7.48542 263.539 -5.85658ZM446.041 -101.998L438.757 -103.04C437.732 -101.91 435.407 -100.156 432.686 -98.679L410.35 -86.5516C408.452 -85.5209 404.489 -83.615 402.643 -82.9405L407.522 -73.9555C408.816 -74.7402 412.09 -77.0094 414.748 -78.4524L436.198 -90.0989C437.245 -84.8505 436.787 -76.4906 435.187 -69.4776C432.847 -59.6043 427.23 -46.5597 419.104 -37.232L429.332 -33.9369C435.768 -42.7565 440.61 -53.9063 443.47 -64.6348C452.544 -62.1062 461.933 -58.8472 469.137 -55.3856L472.949 -65.5663C466.743 -68.0951 454.689 -72.0373 445.47 -74.0777C446.618 -82.0743 446.485 -90.7686 445.957 -96.8721C445.839 -98.4468 445.913 -101.027 446.041 -101.998ZM586.575 -130.619C587.949 -128.088 589.757 -124.154 590.752 -121.417L600.622 -126.776C598.961 -129.233 596.24 -133.49 595.243 -135.325L585.521 -153.232C593.625 -154.601 605.109 -156.085 613.482 -156.207L612.347 -166.897C604.98 -166.583 590.392 -164.48 580.573 -162.344L575.489 -171.708C574.08 -174.303 572.885 -177.259 571.936 -179.611L562.065 -174.251C563.71 -172.277 565.618 -169.216 566.82 -167.002L586.575 -130.619ZM756.816 -269.752L748.451 -270.371C746.983 -269.001 744.993 -267.838 743.727 -267.151L714.494 -251.279C712.406 -250.145 708.628 -248.503 706.626 -247.662L711.471 -238.74C713.047 -239.76 716.015 -241.536 718.863 -243.082L748.349 -259.091C750.447 -253.266 751.959 -244.748 750.634 -237.228C748.979 -228.055 744.817 -218.668 733.904 -208.891L744.889 -205.106C754.194 -214.828 759.208 -225.662 760.843 -236.381C762.282 -246.256 759.741 -257.575 757.829 -264.567C757.424 -266.067 756.934 -268.177 756.816 -269.752ZM898.102 -342.859L889.94 -338.427C891.12 -336.856 892.41 -334.934 893.297 -333.45C894.014 -332.282 894.764 -331.051 895.52 -329.659L878.309 -320.314C876.664 -319.421 873.966 -318.202 872.345 -317.567L876.571 -309.785C878.337 -310.908 880.546 -312.271 882.381 -313.267L895.922 -320.619C894.751 -312.364 889.769 -300.565 883.017 -291.574L891.958 -288.235C897.294 -296.212 901.988 -307.937 903.36 -315.973C906.034 -311.199 908.605 -306.614 910.289 -303.514C910.976 -302.248 910.911 -301.312 909.709 -300.659C908.064 -299.766 904.923 -298.307 902.123 -297.278L906.546 -290.339C909.496 -291.695 913.488 -293.699 916.525 -295.348C920.258 -297.375 921.489 -300.993 919.639 -304.248C916.072 -310.668 911.21 -319.17 906.932 -326.597L914.525 -330.72C915.917 -331.476 917.912 -332.477 919.465 -333.239L915.308 -340.895C914.238 -340.15 911.971 -338.591 910.326 -337.698L902.86 -333.644C902.104 -335.036 901.319 -336.331 900.701 -337.469C899.773 -339.178 898.737 -341.237 898.102 -342.859ZM1020.24 -396.149L1025.64 -386.215C1027.88 -387.676 1032.05 -390.105 1035.65 -392.063L1069.63 -410.512C1072.29 -411.955 1075.65 -413.454 1077.21 -414.215L1071.81 -424.149C1070.24 -423.129 1067.59 -421.365 1064.62 -419.75L1030.64 -401.301C1027.35 -399.515 1022.62 -397.196 1020.24 -396.149ZM1170.14 -502.442L1174.57 -494.279C1176.46 -495.471 1179.05 -497.04 1181.27 -498.243L1206.64 -512.019C1208.85 -513.222 1211.39 -514.435 1213.61 -515.476L1209.18 -523.639C1207.2 -522.154 1204.74 -520.654 1202.59 -519.486L1177.15 -505.675C1175.06 -504.541 1172.4 -503.259 1170.14 -502.442ZM1171.59 -482.258L1176.09 -473.969C1177.8 -475.058 1180.13 -476.49 1182.03 -477.52L1199.43 -486.968C1202.06 -481.515 1203.56 -476.186 1203.1 -470.854C1202.56 -465.81 1200.13 -459.735 1196.56 -455.588L1206.88 -454.229C1210.97 -460.134 1213.16 -467.715 1213.01 -473.283C1212.88 -478.949 1211.39 -485.02 1208.23 -491.743L1223.48 -500.023C1225.25 -500.985 1227.69 -502.227 1229.34 -502.96L1224.87 -511.185C1223.36 -510.039 1220.65 -508.401 1219.32 -507.679L1177.87 -485.177C1175.91 -484.111 1173.59 -483.099 1171.59 -482.258ZM1335.71 -588C1336.45 -587.091 1338.03 -585.243 1339.98 -582.86C1335.02 -579.02 1330.52 -575.678 1328.45 -574.223C1326.62 -572.905 1324.79 -571.748 1322.8 -570.585L1329.25 -562.781C1331.09 -564.518 1332.57 -565.728 1334.35 -567.27C1336.14 -568.651 1340.57 -572.119 1345.65 -576.028C1347.98 -573.111 1350.6 -569.945 1353.08 -566.872C1347.24 -562.39 1341.87 -558.245 1339.17 -556.285C1337.28 -554.933 1334.64 -553.007 1332.97 -552.016L1339.34 -544.5C1340.59 -545.669 1342.5 -547.28 1344.95 -549.264C1347.39 -551.247 1352.79 -555.489 1358.66 -560.069C1362.56 -555.304 1365.75 -551.384 1367.07 -549.721C1368.44 -548.092 1369.83 -545.981 1371.42 -543.811L1379.64 -550.404C1377.97 -552.119 1376.1 -554.054 1374.63 -555.711C1373.18 -557.467 1370 -561.225 1366.17 -565.864C1371.25 -569.773 1375.93 -573.379 1378.69 -575.534C1380.89 -577.219 1383.25 -579.07 1384.89 -580.125L1378.64 -587.549C1377.27 -586.15 1375.21 -584.373 1373.01 -582.526C1370.48 -580.411 1365.77 -576.708 1360.59 -572.667C1358 -575.769 1355.48 -578.906 1353.13 -581.726C1357.94 -585.4 1362.33 -588.77 1364.69 -590.622C1366.45 -591.905 1368.77 -593.659 1370.09 -594.542L1364.08 -602.006C1362.8 -600.739 1360.67 -598.927 1358.85 -597.448C1356.81 -595.768 1352.42 -592.398 1347.52 -588.592C1345.47 -591.164 1343.95 -593.046 1343.34 -593.864C1342.2 -595.21 1340.85 -597.259 1339.97 -598.421L1331.84 -592.122C1333.1 -590.844 1334.34 -589.629 1335.71 -588ZM1518.22 -684.141L1510.93 -685.184C1509.91 -684.053 1507.58 -682.3 1504.86 -680.822L1482.52 -668.695C1480.63 -667.664 1476.66 -665.758 1474.82 -665.084L1479.7 -656.099C1480.99 -656.884 1484.26 -659.153 1486.92 -660.596L1508.37 -672.242C1509.42 -666.994 1508.96 -658.634 1507.36 -651.621C1505.02 -641.748 1499.4 -628.703 1491.28 -619.375L1501.51 -616.08C1507.94 -624.9 1512.78 -636.05 1515.64 -646.778C1524.72 -644.249 1534.11 -640.991 1541.31 -637.529L1545.12 -647.71C1538.92 -650.238 1526.86 -654.181 1517.64 -656.221C1518.79 -664.218 1518.66 -672.912 1518.13 -679.015C1518.01 -680.59 1518.09 -683.17 1518.22 -684.141ZM1658.75 -712.762C1660.12 -710.231 1661.93 -706.297 1662.93 -703.56L1672.8 -708.919C1671.14 -711.376 1668.41 -715.634 1667.42 -717.469L1657.7 -735.376C1665.8 -736.745 1677.28 -738.228 1685.66 -738.35L1684.52 -749.04C1677.15 -748.727 1662.57 -746.623 1652.75 -744.487L1647.66 -753.852C1646.26 -756.446 1645.06 -759.402 1644.11 -761.754L1634.24 -756.395C1635.88 -754.42 1637.79 -751.36 1638.99 -749.145L1658.75 -712.762Z" fill="#161616"/>
<path d="M-315.146 102.42L-323.511 101.801C-324.979 103.171 -326.97 104.334 -328.235 105.021L-357.468 120.893C-359.556 122.027 -363.335 123.669 -365.336 124.51L-360.492 133.432C-358.916 132.412 -355.947 130.636 -353.1 129.09L-323.614 113.081C-321.516 118.906 -320.004 127.424 -321.329 134.944C-322.984 144.117 -327.145 153.504 -338.059 163.281L-327.073 167.066C-317.769 157.344 -312.754 146.51 -311.119 135.791C-309.681 125.916 -312.222 114.597 -314.133 107.605C-314.538 106.105 -315.028 103.995 -315.146 102.42ZM-173.86 29.3133L-182.023 33.7452C-180.842 35.3162 -179.553 37.2379 -178.665 38.7221C-177.949 39.89 -177.199 41.1211 -176.443 42.5132L-193.654 51.8579C-195.299 52.7511 -197.996 53.9699 -199.618 54.6046L-195.392 62.3874C-193.626 61.2645 -191.417 59.9012 -189.582 58.9049L-176.041 51.5528C-177.212 59.8079 -182.193 71.6068 -188.945 80.5981L-180.005 83.9367C-174.669 75.9597 -169.974 64.2349 -168.603 56.1986C-165.928 60.9731 -163.357 65.5578 -161.674 68.6583C-160.987 69.9238 -161.052 70.8603 -162.254 71.5131C-163.899 72.4063 -167.039 73.8655 -169.84 74.8945L-165.417 81.833C-162.466 80.4768 -158.475 78.4733 -155.438 76.8242C-151.704 74.7973 -150.473 71.1795 -152.323 67.9236C-155.891 61.5039 -160.753 53.0016 -165.031 45.5749L-157.438 41.4523C-156.046 40.6965 -154.05 39.6947 -152.497 38.9335L-156.654 31.2772C-157.724 32.0222 -159.991 33.5808 -161.637 34.474L-169.103 38.528C-169.859 37.1359 -170.644 35.8415 -171.262 34.7025C-172.19 32.9941 -173.226 30.935 -173.86 29.3133ZM-51.719 -23.9774L-46.3252 -14.0433C-44.0871 -15.5042 -39.9164 -17.9326 -36.3098 -19.8909L-2.33117 -38.3397C0.326375 -39.7826 3.69081 -41.2817 5.24377 -42.0429L-0.150035 -51.9771C-1.72647 -50.9573 -4.37314 -49.1925 -7.34706 -47.5778L-41.3256 -29.129C-44.6159 -27.3425 -49.3381 -25.0244 -51.719 -23.9774ZM98.1753 -130.27L102.607 -122.107C104.5 -123.299 107.089 -124.868 109.303 -126.071L134.677 -139.847C136.891 -141.05 139.428 -142.263 141.648 -143.304L137.216 -151.467C135.236 -149.982 132.774 -148.482 130.623 -147.314L105.186 -133.503C103.098 -132.369 100.435 -131.087 98.1753 -130.27ZM99.6304 -110.086L104.131 -101.797C105.834 -102.886 108.17 -104.318 110.068 -105.348L127.469 -114.796C130.101 -109.343 131.602 -104.014 131.138 -98.6822C130.6 -93.638 128.163 -87.5632 124.598 -83.4156L134.921 -82.0568C139.007 -87.9618 141.199 -95.5426 141.043 -101.111C140.917 -106.777 139.423 -112.848 136.264 -119.571L151.513 -127.851C153.285 -128.813 155.723 -130.055 157.374 -130.788L152.908 -139.013C151.4 -137.867 148.685 -136.229 147.356 -135.507L105.911 -113.004C103.949 -111.939 101.632 -110.927 99.6304 -110.086ZM263.751 -215.828C264.491 -214.919 266.068 -213.071 268.017 -210.688C263.056 -206.848 258.562 -203.506 256.485 -202.051C254.661 -200.733 252.831 -199.576 250.841 -198.413L257.29 -190.609C259.132 -192.346 260.606 -193.556 262.39 -195.098C264.18 -196.479 268.605 -199.947 273.692 -203.857C276.014 -200.939 278.634 -197.773 281.122 -194.7C275.281 -190.218 269.912 -186.073 267.207 -184.113C265.32 -182.761 262.678 -180.835 261.004 -179.845L267.38 -172.328C268.629 -173.497 270.54 -175.108 272.986 -177.092C275.432 -179.075 280.83 -183.317 286.7 -187.897C290.598 -183.132 293.791 -179.212 295.104 -177.549C296.48 -175.92 297.872 -173.809 299.46 -171.639L307.678 -178.232C306.009 -179.947 304.14 -181.882 302.666 -183.539C301.221 -185.295 298.034 -189.053 294.204 -193.692C299.291 -197.601 303.97 -201.207 306.732 -203.362C308.931 -205.047 311.284 -206.899 312.924 -207.953L306.681 -215.377C305.31 -213.978 303.244 -212.201 301.051 -210.355C298.513 -208.239 293.805 -204.536 288.626 -200.495C286.041 -203.597 283.518 -206.734 281.168 -209.554C285.973 -213.228 290.37 -216.598 292.723 -218.45C294.484 -219.734 296.809 -221.487 298.132 -222.37L292.113 -229.834C290.835 -228.567 288.705 -226.755 286.887 -225.276C284.849 -223.596 280.453 -220.226 275.555 -216.42C273.503 -218.993 271.99 -220.874 271.382 -221.692C270.241 -223.038 268.883 -225.087 268.007 -226.249L259.875 -219.95C261.142 -218.672 262.375 -217.457 263.751 -215.828ZM446.253 -311.969L438.969 -313.012C437.944 -311.881 435.619 -310.128 432.898 -308.65L410.562 -296.523C408.664 -295.492 404.701 -293.586 402.855 -292.912L407.734 -283.927C409.028 -284.712 412.302 -286.981 414.96 -288.424L436.41 -300.07C437.457 -294.822 436.999 -286.462 435.399 -279.449C433.059 -269.576 427.442 -256.531 419.317 -247.203L429.544 -243.908C435.98 -252.728 440.822 -263.878 443.682 -274.606C452.756 -272.077 462.145 -268.819 469.35 -265.357L473.162 -275.538C466.955 -278.066 454.901 -282.009 445.682 -284.049C446.83 -292.046 446.697 -300.74 446.169 -306.843C446.051 -308.418 446.125 -310.998 446.253 -311.969ZM586.787 -340.59C588.161 -338.059 589.969 -334.125 590.964 -331.388L600.835 -336.747C599.173 -339.204 596.452 -343.462 595.455 -345.297L585.733 -363.203C593.838 -364.573 605.321 -366.056 613.694 -366.178L612.56 -376.868C605.192 -376.555 590.604 -374.451 580.786 -372.315L575.701 -381.68C574.292 -384.274 573.097 -387.23 572.148 -389.582L562.277 -384.222C563.922 -382.248 565.83 -379.188 567.032 -376.973L586.787 -340.59ZM757.029 -479.723L748.663 -480.342C747.195 -478.972 745.205 -477.809 743.939 -477.122L714.706 -461.25C712.618 -460.116 708.84 -458.474 706.839 -457.633L711.683 -448.712C713.259 -449.732 716.228 -451.507 719.075 -453.053L748.561 -469.063C750.659 -463.238 752.171 -454.719 750.846 -447.2C749.191 -438.026 745.03 -428.639 734.116 -418.863L745.101 -415.078C754.406 -424.8 759.42 -435.633 761.056 -446.353C762.494 -456.228 759.953 -467.547 758.041 -474.538C757.636 -476.038 757.146 -478.148 757.029 -479.723ZM898.314 -552.83L890.152 -548.398C891.333 -546.827 892.622 -544.905 893.51 -543.421C894.226 -542.253 894.976 -541.022 895.732 -539.63L878.521 -530.285C876.876 -529.392 874.179 -528.174 872.557 -527.539L876.783 -519.756C878.549 -520.879 880.758 -522.242 882.593 -523.239L896.134 -530.591C894.963 -522.335 889.981 -510.537 883.229 -501.545L892.17 -498.207C897.506 -506.184 902.2 -517.908 903.572 -525.945C906.246 -521.17 908.818 -516.586 910.501 -513.485C911.188 -512.22 911.123 -511.283 909.921 -510.63C908.276 -509.737 905.135 -508.278 902.335 -507.249L906.758 -500.31C909.708 -501.667 913.7 -503.67 916.737 -505.319C920.47 -507.346 921.701 -510.964 919.852 -514.22C916.284 -520.639 911.422 -529.142 907.144 -536.568L914.737 -540.691C916.129 -541.447 918.125 -542.449 919.678 -543.21L915.521 -550.866C914.45 -550.121 912.183 -548.563 910.538 -547.669L903.072 -543.615C902.316 -545.007 901.531 -546.302 900.913 -547.441C899.985 -549.149 898.949 -551.208 898.314 -552.83ZM1020.46 -606.121L1025.85 -596.187C1028.09 -597.648 1032.26 -600.076 1035.86 -602.034L1069.84 -620.483C1072.5 -621.926 1075.87 -623.425 1077.42 -624.186L1072.02 -634.12C1070.45 -633.101 1067.8 -631.336 1064.83 -629.721L1030.85 -611.272C1027.56 -609.486 1022.84 -607.168 1020.46 -606.121ZM1170.35 -712.413L1174.78 -704.25C1176.67 -705.442 1179.26 -707.012 1181.48 -708.214L1206.85 -721.99C1209.07 -723.193 1211.6 -724.406 1213.82 -725.448L1209.39 -733.61C1207.41 -732.126 1204.95 -730.625 1202.8 -729.457L1177.36 -715.646C1175.27 -714.512 1172.61 -713.23 1170.35 -712.413ZM1171.81 -692.229L1176.31 -683.94C1178.01 -685.029 1180.34 -686.461 1182.24 -687.492L1199.64 -696.939C1202.28 -691.487 1203.78 -686.157 1203.31 -680.826C1202.77 -675.781 1200.34 -669.707 1196.77 -665.559L1207.1 -664.2C1211.18 -670.105 1213.37 -677.686 1213.22 -683.254C1213.09 -688.92 1211.6 -694.991 1208.44 -701.715L1223.69 -709.994C1225.46 -710.956 1227.9 -712.199 1229.55 -712.931L1225.08 -721.157C1223.57 -720.01 1220.86 -718.372 1219.53 -717.651L1178.09 -695.148C1176.12 -694.083 1173.81 -693.07 1171.81 -692.229ZM1335.93 -797.971C1336.67 -797.062 1338.24 -795.214 1340.19 -792.832C1335.23 -788.991 1330.74 -785.65 1328.66 -784.194C1326.84 -782.876 1325.01 -781.719 1323.02 -780.556L1329.46 -772.752C1331.31 -774.489 1332.78 -775.699 1334.56 -777.241C1336.35 -778.623 1340.78 -782.091 1345.87 -786C1348.19 -783.082 1350.81 -779.917 1353.3 -776.843C1347.46 -772.361 1342.09 -768.217 1339.38 -766.257C1337.49 -764.904 1334.85 -762.979 1333.18 -761.988L1339.55 -754.471C1340.8 -755.641 1342.71 -757.252 1345.16 -759.235C1347.61 -761.219 1353 -765.46 1358.87 -770.04C1362.77 -765.275 1365.97 -761.356 1367.28 -759.692C1368.65 -758.064 1370.05 -755.952 1371.63 -753.783L1379.85 -760.375C1378.18 -762.091 1376.31 -764.025 1374.84 -765.683C1373.4 -767.438 1370.21 -771.197 1366.38 -775.835C1371.47 -779.745 1376.14 -783.35 1378.91 -785.505C1381.11 -787.19 1383.46 -789.042 1385.1 -790.096L1378.86 -797.521C1377.48 -796.121 1375.42 -794.344 1373.23 -792.498C1370.69 -790.382 1365.98 -786.679 1360.8 -782.638C1358.22 -785.74 1355.69 -788.877 1353.34 -791.697C1358.15 -795.371 1362.54 -798.742 1364.9 -800.593C1366.66 -801.877 1368.98 -803.631 1370.31 -804.513L1364.29 -811.978C1363.01 -810.71 1360.88 -808.898 1359.06 -807.419C1357.02 -805.74 1352.63 -802.369 1347.73 -798.563C1345.68 -801.136 1344.16 -803.018 1343.56 -803.835C1342.42 -805.182 1341.06 -807.23 1340.18 -808.392L1332.05 -802.093C1333.32 -800.815 1334.55 -799.6 1335.93 -797.971ZM1518.43 -894.112L1511.14 -895.155C1510.12 -894.025 1507.79 -892.271 1505.07 -890.794L1482.74 -878.666C1480.84 -877.636 1476.88 -875.73 1475.03 -875.055L1479.91 -866.07C1481.2 -866.855 1484.48 -869.124 1487.13 -870.567L1508.58 -882.213C1509.63 -876.965 1509.17 -868.605 1507.57 -861.592C1505.23 -851.719 1499.62 -838.674 1491.49 -829.347L1501.72 -826.052C1508.15 -834.871 1513 -846.021 1515.86 -856.749C1524.93 -854.221 1534.32 -850.962 1541.52 -847.5L1545.34 -857.681C1539.13 -860.21 1527.08 -864.152 1517.86 -866.192C1519 -874.189 1518.87 -882.883 1518.34 -888.987C1518.23 -890.561 1518.3 -893.141 1518.43 -894.112ZM1658.96 -922.733C1660.34 -920.202 1662.14 -916.268 1663.14 -913.531L1673.01 -918.891C1671.35 -921.348 1668.63 -925.605 1667.63 -927.44L1657.91 -945.347C1666.01 -946.716 1677.5 -948.199 1685.87 -948.321L1684.73 -959.011C1677.37 -958.698 1662.78 -956.594 1652.96 -954.458L1647.88 -963.823C1646.47 -966.417 1645.27 -969.373 1644.32 -971.725L1634.45 -966.366C1636.1 -964.392 1638 -961.331 1639.21 -959.116L1658.96 -922.733Z" fill="#161616"/>
<path d="M-315.358 522.647L-323.723 522.027C-325.191 523.398 -327.182 524.56 -328.447 525.248L-357.68 541.12C-359.768 542.254 -363.547 543.895 -365.548 544.736L-360.704 553.658C-359.128 552.638 -356.159 550.863 -353.312 549.317L-323.826 533.307C-321.728 539.132 -320.216 547.651 -321.541 555.17C-323.196 564.344 -327.357 573.731 -338.271 583.507L-327.286 587.292C-317.981 577.57 -312.966 566.737 -311.331 556.017C-309.893 546.142 -312.434 534.823 -314.345 527.832C-314.75 526.331 -315.24 524.221 -315.358 522.647ZM-174.072 449.54L-182.235 453.972C-181.054 455.543 -179.765 457.464 -178.877 458.949C-178.161 460.116 -177.411 461.348 -176.655 462.74L-193.866 472.084C-195.511 472.978 -198.208 474.196 -199.83 474.831L-195.604 482.614C-193.838 481.491 -191.629 480.128 -189.794 479.131L-176.253 471.779C-177.424 480.034 -182.405 491.833 -189.157 500.825L-180.217 504.163C-174.881 496.186 -170.186 484.461 -168.815 476.425C-166.14 481.2 -163.569 485.784 -161.886 488.885C-161.199 490.15 -161.264 491.087 -162.466 491.74C-164.111 492.633 -167.251 494.092 -170.052 495.121L-165.629 502.059C-162.679 500.703 -158.687 498.7 -155.65 497.051C-151.916 495.024 -150.685 491.406 -152.535 488.15C-156.103 481.73 -160.965 473.228 -165.243 465.801L-157.65 461.679C-156.258 460.923 -154.262 459.921 -152.709 459.16L-156.866 451.504C-157.936 452.249 -160.203 453.807 -161.849 454.7L-169.315 458.754C-170.071 457.362 -170.856 456.068 -171.474 454.929C-172.402 453.221 -173.438 451.161 -174.072 449.54ZM-51.9311 396.249L-46.5373 406.183C-44.2992 404.722 -40.1285 402.294 -36.5218 400.336L-2.5432 381.887C0.114339 380.444 3.47878 378.945 5.03173 378.184L-0.362071 368.249C-1.93851 369.269 -4.58518 371.034 -7.5591 372.649L-41.5377 391.097C-44.828 392.884 -49.5501 395.202 -51.9311 396.249ZM97.9633 289.957L102.395 298.119C104.288 296.928 106.877 295.358 109.091 294.156L134.465 280.379C136.679 279.177 139.216 277.964 141.436 276.922L137.004 268.76C135.024 270.244 132.562 271.745 130.411 272.913L104.974 286.724C102.886 287.857 100.223 289.139 97.9633 289.957ZM99.4184 310.14L103.919 318.429C105.622 317.341 107.958 315.909 109.856 314.878L127.256 305.43C129.889 310.883 131.39 316.213 130.926 321.544C130.388 326.588 127.951 332.663 124.386 336.811L134.709 338.17C138.795 332.265 140.987 324.684 140.831 319.115C140.704 313.449 139.211 307.379 136.052 300.655L151.301 292.375C153.073 291.413 155.511 290.171 157.162 289.439L152.696 281.213C151.188 282.36 148.473 283.998 147.144 284.719L105.699 307.222C103.737 308.287 101.42 309.3 99.4184 310.14ZM263.539 204.399C264.279 205.308 265.856 207.155 267.805 209.538C262.844 213.379 258.35 216.72 256.273 218.176C254.448 219.494 252.619 220.651 250.629 221.813L257.078 229.618C258.92 227.88 260.394 226.671 262.178 225.128C263.968 223.747 268.393 220.279 273.48 216.37C275.802 219.288 278.422 222.453 280.91 225.526C275.069 230.009 269.699 234.153 266.995 236.113C265.108 237.465 262.466 239.391 260.792 240.382L267.168 247.899C268.417 246.729 270.328 245.118 272.774 243.134C275.22 241.151 280.618 236.909 286.488 232.329C290.386 237.095 293.579 241.014 294.892 242.677C296.268 244.306 297.66 246.418 299.248 248.587L307.466 241.995C305.797 240.279 303.927 238.345 302.454 236.687C301.009 234.932 297.822 231.173 293.992 226.534C299.079 222.625 303.758 219.02 306.52 216.865C308.719 215.179 311.072 213.328 312.712 212.274L306.469 204.849C305.098 206.249 303.032 208.026 300.839 209.872C298.301 211.987 293.593 215.69 288.414 219.731C285.828 216.629 283.306 213.493 280.956 210.673C285.761 206.998 290.157 203.628 292.511 201.777C294.272 200.493 296.597 198.739 297.92 197.857L291.901 190.392C290.623 191.66 288.493 193.471 286.675 194.95C284.637 196.63 280.241 200 275.343 203.806C273.291 201.234 271.778 199.352 271.17 198.535C270.029 197.188 268.671 195.14 267.794 193.977L259.663 200.277C260.93 201.555 262.163 202.77 263.539 204.399ZM446.041 108.258L438.757 107.215C437.732 108.345 435.407 110.099 432.686 111.576L410.35 123.704C408.452 124.734 404.489 126.64 402.643 127.315L407.522 136.3C408.816 135.515 412.09 133.246 414.748 131.803L436.198 120.156C437.245 125.405 436.787 133.764 435.187 140.778C432.847 150.651 427.23 163.695 419.104 173.023L429.332 176.318C435.768 167.499 440.61 156.349 443.47 145.62C452.544 148.149 461.933 151.408 469.137 154.87L472.95 144.689C466.743 142.16 454.689 138.218 445.47 136.177C446.618 128.181 446.485 119.487 445.957 113.383C445.839 111.808 445.913 109.228 446.041 108.258ZM586.575 79.6364C587.949 82.1674 589.757 86.1013 590.752 88.8385L600.623 83.479C598.961 81.0222 596.24 76.7647 595.243 74.9297L585.521 57.0229C593.626 55.6537 605.109 54.1704 613.482 54.0486L612.348 43.3584C604.98 43.6717 590.392 45.7755 580.574 47.9114L575.489 38.5467C574.08 35.9524 572.885 32.9966 571.936 30.6445L562.065 36.004C563.71 37.9781 565.618 41.0388 566.82 43.2534L586.575 79.6364ZM756.817 -59.4965L748.451 -60.116C746.983 -58.7455 744.993 -57.5828 743.727 -56.8957L714.494 -41.0235C712.406 -39.8898 708.628 -38.2479 706.627 -37.4071L711.471 -28.4853C713.047 -29.5051 716.016 -31.2807 718.863 -32.8267L748.349 -48.8363C750.447 -43.0113 751.959 -34.4925 750.634 -26.9732C748.979 -17.7997 744.818 -8.41262 733.904 1.36368L744.889 5.14864C754.194 -4.57329 759.208 -15.4068 760.844 -26.1261C762.282 -36.0011 759.741 -47.3203 757.829 -54.3115C757.424 -55.812 756.934 -57.9218 756.817 -59.4965ZM898.102 -132.604L889.94 -128.172C891.121 -126.601 892.41 -124.679 893.298 -123.195C894.014 -122.027 894.764 -120.796 895.52 -119.404L878.309 -110.059C876.664 -109.166 873.967 -107.947 872.345 -107.312L876.571 -99.5296C878.337 -100.652 880.546 -102.016 882.381 -103.012L895.922 -110.364C894.751 -102.109 889.769 -90.3101 883.017 -81.3188L891.958 -77.9802C897.294 -85.9572 901.988 -97.682 903.36 -105.718C906.034 -100.944 908.606 -96.3591 910.289 -93.2586C910.976 -91.9931 910.911 -91.0566 909.709 -90.4039C908.064 -89.5106 904.923 -88.0514 902.123 -87.0225L906.546 -80.084C909.496 -81.4401 913.488 -83.4436 916.525 -85.0927C920.258 -87.1197 921.489 -90.7374 919.64 -93.9933C916.072 -100.413 911.21 -108.915 906.932 -116.342L914.525 -120.465C915.917 -121.22 917.913 -122.222 919.466 -122.983L915.309 -130.64C914.238 -129.895 911.971 -128.336 910.326 -127.443L902.86 -123.389C902.104 -124.781 901.319 -126.075 900.701 -127.214C899.773 -128.923 898.737 -130.982 898.102 -132.604ZM1020.24 -185.894L1025.64 -175.96C1027.88 -177.421 1032.05 -179.849 1035.65 -181.808L1069.63 -200.257C1072.29 -201.7 1075.65 -203.199 1077.21 -203.96L1071.81 -213.894C1070.24 -212.874 1067.59 -211.109 1064.62 -209.495L1030.64 -191.046C1027.35 -189.259 1022.62 -186.941 1020.24 -185.894ZM1170.14 -292.186L1174.57 -284.024C1176.46 -285.216 1179.05 -286.785 1181.27 -287.988L1206.64 -301.764C1208.85 -302.966 1211.39 -304.18 1213.61 -305.221L1209.18 -313.384C1207.2 -311.899 1204.74 -310.399 1202.59 -309.23L1177.15 -295.42C1175.06 -294.286 1172.4 -293.004 1170.14 -292.186ZM1171.59 -272.003L1176.09 -263.714C1177.8 -264.802 1180.13 -266.234 1182.03 -267.265L1199.43 -276.713C1202.06 -271.26 1203.56 -265.931 1203.1 -260.599C1202.56 -255.555 1200.13 -249.48 1196.56 -245.332L1206.88 -243.974C1210.97 -249.879 1213.16 -257.459 1213.01 -263.028C1212.88 -268.694 1211.39 -274.765 1208.23 -281.488L1223.48 -289.768C1225.25 -290.73 1227.69 -291.972 1229.34 -292.704L1224.87 -300.93C1223.36 -299.784 1220.65 -298.146 1219.32 -297.424L1177.87 -274.921C1175.91 -273.856 1173.59 -272.844 1171.59 -272.003ZM1335.71 -377.745C1336.45 -376.835 1338.03 -374.988 1339.98 -372.605C1335.02 -368.765 1330.52 -365.423 1328.45 -363.968C1326.62 -362.65 1324.79 -361.492 1322.8 -360.33L1329.25 -352.525C1331.09 -354.263 1332.57 -355.473 1334.35 -357.015C1336.14 -358.396 1340.57 -361.864 1345.65 -365.773C1347.98 -362.856 1350.6 -359.69 1353.08 -356.617C1347.24 -352.134 1341.87 -347.99 1339.17 -346.03C1337.28 -344.678 1334.64 -342.752 1332.97 -341.761L1339.34 -334.244C1340.59 -335.414 1342.5 -337.025 1344.95 -339.009C1347.39 -340.992 1352.79 -345.234 1358.66 -349.814C1362.56 -345.049 1365.75 -341.129 1367.07 -339.466C1368.44 -337.837 1369.83 -335.726 1371.42 -333.556L1379.64 -340.149C1377.97 -341.864 1376.1 -343.799 1374.63 -345.456C1373.18 -347.212 1370 -350.97 1366.17 -355.609C1371.25 -359.518 1375.93 -363.123 1378.69 -365.279C1380.89 -366.964 1383.25 -368.815 1384.89 -369.87L1378.64 -377.294C1377.27 -375.895 1375.21 -374.117 1373.01 -372.271C1370.48 -370.156 1365.77 -366.453 1360.59 -362.412C1358 -365.514 1355.48 -368.651 1353.13 -371.471C1357.94 -375.145 1362.33 -378.515 1364.69 -380.367C1366.45 -381.65 1368.77 -383.404 1370.09 -384.287L1364.08 -391.751C1362.8 -390.484 1360.67 -388.672 1358.85 -387.193C1356.81 -385.513 1352.42 -382.143 1347.52 -378.337C1345.47 -380.909 1343.95 -382.791 1343.34 -383.608C1342.2 -384.955 1340.85 -387.003 1339.97 -388.166L1331.84 -381.866C1333.1 -380.588 1334.34 -379.374 1335.71 -377.745ZM1518.22 -473.886L1510.93 -474.928C1509.91 -473.798 1507.58 -472.044 1504.86 -470.567L1482.53 -458.44C1480.63 -457.409 1476.66 -455.503 1474.82 -454.829L1479.7 -445.844C1480.99 -446.628 1484.26 -448.898 1486.92 -450.341L1508.37 -461.987C1509.42 -456.739 1508.96 -448.379 1507.36 -441.366C1505.02 -431.492 1499.41 -418.448 1491.28 -409.12L1501.51 -405.825C1507.94 -414.645 1512.78 -425.794 1515.64 -436.523C1524.72 -433.994 1534.11 -430.735 1541.31 -427.274L1545.12 -437.454C1538.92 -439.983 1526.86 -443.925 1517.64 -445.966C1518.79 -453.962 1518.66 -462.657 1518.13 -468.76C1518.01 -470.335 1518.09 -472.915 1518.22 -473.886ZM1658.75 -502.507C1660.12 -499.976 1661.93 -496.042 1662.93 -493.305L1672.8 -498.664C1671.14 -501.121 1668.41 -505.379 1667.42 -507.214L1657.7 -525.12C1665.8 -526.49 1677.28 -527.973 1685.66 -528.095L1684.52 -538.785C1677.15 -538.472 1662.57 -536.368 1652.75 -534.232L1647.66 -543.597C1646.26 -546.191 1645.06 -549.147 1644.11 -551.499L1634.24 -546.139C1635.89 -544.165 1637.79 -541.105 1639 -538.89L1658.75 -502.507Z" fill="#161616"/>
<path d="M-315.358 732.902L-323.724 732.282C-325.191 733.653 -327.182 734.816 -328.447 735.503L-357.68 751.375C-359.768 752.509 -363.547 754.151 -365.548 754.991L-360.704 763.913C-359.128 762.893 -356.159 761.118 -353.312 759.572L-323.826 743.562C-321.728 749.387 -320.216 757.906 -321.541 765.425C-323.196 774.599 -327.357 783.986 -338.271 793.762L-327.286 797.547C-317.981 787.825 -312.967 776.992 -311.331 766.272C-309.893 756.397 -312.434 745.078 -314.345 738.087C-314.75 736.586 -315.241 734.477 -315.358 732.902ZM-174.072 659.795L-182.235 664.227C-181.054 665.798 -179.765 667.719 -178.877 669.204C-178.161 670.372 -177.411 671.603 -176.655 672.995L-193.866 682.339C-195.511 683.233 -198.208 684.451 -199.83 685.086L-195.604 692.869C-193.838 691.746 -191.629 690.383 -189.794 689.386L-176.253 682.034C-177.424 690.289 -182.406 702.088 -189.158 711.08L-180.217 714.418C-174.881 706.441 -170.186 694.717 -168.815 686.68C-166.141 691.455 -163.569 696.039 -161.886 699.14C-161.199 700.405 -161.264 701.342 -162.466 701.995C-164.111 702.888 -167.251 704.347 -170.052 705.376L-165.629 712.315C-162.679 710.958 -158.687 708.955 -155.65 707.306C-151.916 705.279 -150.686 701.661 -152.535 698.405C-156.103 691.985 -160.965 683.483 -165.243 676.057L-157.65 671.934C-156.258 671.178 -154.262 670.176 -152.709 669.415L-156.866 661.759C-157.937 662.504 -160.204 664.062 -161.849 664.956L-169.315 669.01C-170.071 667.617 -170.856 666.323 -171.474 665.184C-172.402 663.476 -173.438 661.417 -174.072 659.795ZM-51.9312 606.504L-46.5374 616.438C-44.2993 614.977 -40.1286 612.549 -36.5219 610.591L-2.54333 592.142C0.114217 590.699 3.47866 589.2 5.03161 588.439L-0.362193 578.504C-1.93863 579.524 -4.5853 581.289 -7.55922 582.904L-41.5378 601.353C-44.8281 603.139 -49.5502 605.457 -51.9312 606.504ZM97.9632 500.212L102.395 508.374C104.288 507.183 106.877 505.613 109.091 504.411L134.464 490.634C136.679 489.432 139.216 488.219 141.436 487.177L137.004 479.015C135.024 480.499 132.562 482 130.411 483.168L104.974 496.979C102.886 498.113 100.223 499.395 97.9632 500.212ZM99.4183 520.396L103.919 528.685C105.622 527.596 107.958 526.164 109.856 525.133L127.256 515.686C129.889 521.138 131.39 526.468 130.926 531.799C130.388 536.844 127.951 542.918 124.386 547.066L134.709 548.425C138.795 542.52 140.987 534.939 140.831 529.371C140.704 523.705 139.211 517.634 136.052 510.91L151.301 502.631C153.073 501.669 155.511 500.426 157.162 499.694L152.696 491.468C151.188 492.615 148.473 494.253 147.144 494.974L105.699 517.477C103.737 518.542 101.42 519.555 99.4183 520.396ZM263.539 414.654C264.279 415.563 265.855 417.411 267.805 419.793C262.844 423.634 258.35 426.975 256.272 428.431C254.448 429.749 252.619 430.906 250.628 432.069L257.078 439.873C258.92 438.135 260.393 436.926 262.178 435.383C263.967 434.002 268.393 430.534 273.48 426.625C275.802 429.543 278.422 432.708 280.91 435.782C275.069 440.264 269.699 444.408 266.995 446.368C265.107 447.721 262.466 449.646 260.792 450.637L267.167 458.154C268.417 456.984 270.328 455.373 272.774 453.39C275.219 451.406 280.618 447.164 286.488 442.584C290.386 447.35 293.579 451.269 294.892 452.932C296.268 454.561 297.66 456.673 299.247 458.842L307.466 452.25C305.797 450.534 303.927 448.6 302.454 446.942C301.009 445.187 297.821 441.428 293.992 436.789C299.079 432.88 303.758 429.275 306.52 427.12C308.718 425.435 311.072 423.583 312.712 422.529L306.469 415.104C305.098 416.504 303.032 418.281 300.839 420.127C298.301 422.243 293.593 425.946 288.414 429.987C285.828 426.884 283.306 423.748 280.956 420.928C285.761 417.254 290.157 413.883 292.511 412.032C294.272 410.748 296.597 408.994 297.92 408.112L291.901 400.647C290.623 401.915 288.493 403.726 286.675 405.205C284.637 406.885 280.241 410.256 275.343 414.062C273.291 411.489 271.778 409.607 271.17 408.79C270.029 407.443 268.671 405.395 267.794 404.232L259.663 410.532C260.93 411.81 262.163 413.025 263.539 414.654ZM446.041 318.513L438.757 317.47C437.732 318.6 435.407 320.354 432.686 321.831L410.35 333.959C408.452 334.989 404.489 336.895 402.643 337.57L407.522 346.555C408.816 345.77 412.09 343.501 414.748 342.058L436.198 330.411C437.245 335.66 436.787 344.02 435.187 351.033C432.847 360.906 427.23 373.951 419.104 383.278L429.332 386.573C435.768 377.754 440.61 366.604 443.47 355.875C452.544 358.404 461.933 361.663 469.137 365.125L472.949 354.944C466.743 352.415 454.689 348.473 445.47 346.433C446.618 338.436 446.485 329.742 445.957 323.638C445.839 322.063 445.913 319.484 446.041 318.513ZM586.575 289.892C587.949 292.423 589.757 296.356 590.752 299.094L600.622 293.734C598.961 291.277 596.24 287.02 595.243 285.185L585.521 267.278C593.625 265.909 605.109 264.425 613.482 264.304L612.347 253.614C604.98 253.927 590.392 256.031 580.573 258.166L575.489 248.802C574.08 246.208 572.885 243.252 571.936 240.9L562.065 246.259C563.71 248.233 565.618 251.294 566.82 253.509L586.575 289.892ZM756.816 150.759L748.451 150.139C746.983 151.51 744.993 152.672 743.727 153.359L714.494 169.232C712.406 170.365 708.628 172.007 706.626 172.848L711.471 181.77C713.047 180.75 716.015 178.974 718.863 177.428L748.349 161.419C750.447 167.244 751.959 175.763 750.634 183.282C748.979 192.455 744.817 201.843 733.904 211.619L744.889 215.404C754.194 205.682 759.208 194.848 760.843 184.129C762.282 174.254 759.741 162.935 757.829 155.944C757.424 154.443 756.934 152.333 756.816 150.759ZM898.102 77.6515L889.94 82.0834C891.12 83.6544 892.41 85.5761 893.297 87.0603C894.014 88.2282 894.764 89.4594 895.52 90.8514L878.309 100.196C876.664 101.089 873.966 102.308 872.345 102.943L876.571 110.726C878.337 109.603 880.546 108.239 882.381 107.243L895.922 99.891C894.751 108.146 889.769 119.945 883.017 128.936L891.958 132.275C897.294 124.298 901.988 112.573 903.36 104.537C906.034 109.311 908.605 113.896 910.289 116.997C910.976 118.262 910.911 119.199 909.709 119.851C908.064 120.745 904.923 122.204 902.123 123.233L906.546 130.171C909.496 128.815 913.488 126.812 916.525 125.162C920.258 123.135 921.489 119.518 919.639 116.262C916.072 109.842 911.21 101.34 906.932 93.9132L914.525 89.7905C915.917 89.0347 917.912 88.0329 919.465 87.2717L915.308 79.6154C914.238 80.3604 911.971 81.919 910.326 82.8122L902.86 86.8662C902.104 85.4741 901.319 84.1797 900.701 83.0408C899.773 81.3323 898.737 79.2732 898.102 77.6515ZM1020.24 24.3608L1025.64 34.295C1027.88 32.834 1032.05 30.4056 1035.65 28.4474L1069.63 9.99851C1072.29 8.55558 1075.65 7.05655 1077.21 6.2953L1071.81 -3.63885C1070.24 -2.61906 1067.59 -0.854321 1064.62 0.760384L1030.64 19.2092C1027.35 20.9957 1022.62 23.3139 1020.24 24.3608ZM1170.14 -81.9314L1174.57 -73.7689C1176.46 -74.9605 1179.05 -76.53 1181.27 -77.7324L1206.64 -91.5089C1208.85 -92.7114 1211.39 -93.9247 1213.61 -94.9662L1209.18 -103.129C1207.2 -101.644 1204.74 -100.143 1202.59 -98.9754L1177.15 -85.1645C1175.06 -84.0307 1172.4 -82.7487 1170.14 -81.9314ZM1171.59 -61.7478L1176.09 -53.4588C1177.8 -54.5473 1180.13 -55.9793 1182.03 -57.01L1199.43 -66.4577C1202.06 -61.0052 1203.56 -55.6756 1203.1 -50.344C1202.56 -45.2998 1200.13 -39.225 1196.56 -35.0773L1206.88 -33.7186C1210.97 -39.6236 1213.16 -47.2044 1213.01 -52.7728C1212.88 -58.4388 1211.39 -64.5097 1208.23 -71.2331L1223.48 -79.5128C1225.25 -80.4748 1227.69 -81.717 1229.34 -82.4493L1224.87 -90.6751C1223.36 -89.5287 1220.65 -87.8905 1219.32 -87.1691L1177.87 -64.6663C1175.91 -63.6012 1173.59 -62.5886 1171.59 -61.7478ZM1335.71 -167.49C1336.45 -166.58 1338.03 -164.733 1339.98 -162.35C1335.02 -158.51 1330.52 -155.168 1328.45 -153.713C1326.62 -152.395 1324.79 -151.237 1322.8 -150.075L1329.25 -142.27C1331.09 -144.008 1332.57 -145.217 1334.35 -146.76C1336.14 -148.141 1340.57 -151.609 1345.65 -155.518C1347.98 -152.6 1350.6 -149.435 1353.08 -146.362C1347.24 -141.879 1341.87 -137.735 1339.17 -135.775C1337.28 -134.423 1334.64 -132.497 1332.97 -131.506L1339.34 -123.989C1340.59 -125.159 1342.5 -126.77 1344.95 -128.754C1347.39 -130.737 1352.79 -134.979 1358.66 -139.559C1362.56 -134.793 1365.75 -130.874 1367.07 -129.211C1368.44 -127.582 1369.83 -125.471 1371.42 -123.301L1379.64 -129.893C1377.97 -131.609 1376.1 -133.543 1374.63 -135.201C1373.18 -136.957 1370 -140.715 1366.17 -145.354C1371.25 -149.263 1375.93 -152.868 1378.69 -155.024C1380.89 -156.709 1383.25 -158.56 1384.89 -159.614L1378.64 -167.039C1377.27 -165.64 1375.21 -163.862 1373.01 -162.016C1370.48 -159.901 1365.77 -156.198 1360.59 -152.157C1358 -155.259 1355.48 -158.395 1353.13 -161.216C1357.94 -164.89 1362.33 -168.26 1364.69 -170.111C1366.45 -171.395 1368.77 -173.149 1370.09 -174.031L1364.08 -181.496C1362.8 -180.228 1360.67 -178.417 1358.85 -176.938C1356.81 -175.258 1352.42 -171.888 1347.52 -168.082C1345.47 -170.654 1343.95 -172.536 1343.34 -173.353C1342.2 -174.7 1340.85 -176.748 1339.97 -177.911L1331.84 -171.611C1333.1 -170.333 1334.34 -169.118 1335.71 -167.49ZM1518.22 -263.631L1510.93 -264.673C1509.91 -263.543 1507.58 -261.789 1504.86 -260.312L1482.52 -248.185C1480.63 -247.154 1476.66 -245.248 1474.82 -244.574L1479.7 -235.589C1480.99 -236.373 1484.26 -238.643 1486.92 -240.085L1508.37 -251.732C1509.42 -246.484 1508.96 -238.124 1507.36 -231.111C1505.02 -221.237 1499.4 -208.193 1491.28 -198.865L1501.51 -195.57C1507.94 -204.39 1512.78 -215.539 1515.64 -226.268C1524.72 -223.739 1534.11 -220.48 1541.31 -217.019L1545.12 -227.199C1538.92 -229.728 1526.86 -233.67 1517.64 -235.711C1518.79 -243.707 1518.66 -252.402 1518.13 -258.505C1518.01 -260.08 1518.09 -262.66 1518.22 -263.631ZM1658.75 -292.252C1660.12 -289.721 1661.93 -285.787 1662.93 -283.05L1672.8 -288.409C1671.14 -290.866 1668.41 -295.124 1667.42 -296.959L1657.7 -314.865C1665.8 -316.235 1677.28 -317.718 1685.66 -317.84L1684.52 -328.53C1677.15 -328.217 1662.57 -326.113 1652.75 -323.977L1647.66 -333.342C1646.26 -335.936 1645.06 -338.892 1644.11 -341.244L1634.24 -335.884C1635.88 -333.91 1637.79 -330.849 1638.99 -328.635L1658.75 -292.252Z" fill="#161616"/>
<path d="M-315.358 943.157L-323.723 942.538C-325.191 943.908 -327.182 945.071 -328.447 945.758L-357.68 961.63C-359.768 962.764 -363.547 964.406 -365.548 965.247L-360.704 974.168C-359.128 973.148 -356.159 971.373 -353.312 969.827L-323.826 953.817C-321.728 959.642 -320.216 968.161 -321.541 975.68C-323.196 984.854 -327.357 994.241 -338.271 1004.02L-327.286 1007.8C-317.981 998.08 -312.966 987.247 -311.331 976.527C-309.893 966.652 -312.434 955.333 -314.345 948.342C-314.75 946.842 -315.24 944.732 -315.358 943.157ZM-174.072 870.05L-182.235 874.482C-181.054 876.053 -179.765 877.975 -178.877 879.459C-178.161 880.627 -177.411 881.858 -176.655 883.25L-193.866 892.595C-195.511 893.488 -198.208 894.707 -199.83 895.341L-195.604 903.124C-193.838 902.001 -191.629 900.638 -189.794 899.642L-176.253 892.289C-177.424 900.545 -182.405 912.343 -189.157 921.335L-180.217 924.673C-174.881 916.696 -170.186 904.972 -168.815 896.935C-166.14 901.71 -163.569 906.295 -161.886 909.395C-161.199 910.66 -161.264 911.597 -162.466 912.25C-164.111 913.143 -167.251 914.602 -170.052 915.631L-165.629 922.57C-162.679 921.213 -158.687 919.21 -155.65 917.561C-151.916 915.534 -150.685 911.916 -152.535 908.66C-156.103 902.241 -160.965 893.738 -165.243 886.312L-157.65 882.189C-156.258 881.433 -154.262 880.431 -152.709 879.67L-156.866 872.014C-157.936 872.759 -160.203 874.317 -161.849 875.211L-169.315 879.265C-170.071 877.873 -170.856 876.578 -171.474 875.439C-172.402 873.731 -173.438 871.672 -174.072 870.05ZM-51.9311 816.759L-46.5373 826.693C-44.2992 825.232 -40.1285 822.804 -36.5218 820.846L-2.5432 802.397C0.114339 800.954 3.47878 799.455 5.03173 798.694L-0.362071 788.76C-1.93851 789.779 -4.58518 791.544 -7.5591 793.159L-41.5377 811.608C-44.828 813.394 -49.5501 815.712 -51.9311 816.759ZM97.9633 710.467L102.395 718.63C104.288 717.438 106.877 715.869 109.091 714.666L134.465 700.89C136.679 699.687 139.216 698.474 141.436 697.432L137.004 689.27C135.024 690.754 132.562 692.255 130.411 693.423L104.974 707.234C102.886 708.368 100.223 709.65 97.9633 710.467ZM99.4184 730.651L103.919 738.94C105.622 737.851 107.958 736.419 109.856 735.388L127.256 725.941C129.889 731.393 131.39 736.723 130.926 742.055C130.388 747.099 127.951 753.173 124.386 757.321L134.709 758.68C138.795 752.775 140.987 745.194 140.831 739.626C140.704 733.96 139.211 727.889 136.052 721.165L151.301 712.886C153.073 711.924 155.511 710.681 157.162 709.949L152.696 701.723C151.188 702.87 148.473 704.508 147.144 705.229L105.699 727.732C103.737 728.797 101.42 729.81 99.4184 730.651ZM263.539 624.909C264.279 625.818 265.856 627.666 267.805 630.048C262.844 633.889 258.35 637.23 256.273 638.686C254.448 640.004 252.619 641.161 250.629 642.324L257.078 650.128C258.92 648.391 260.394 647.181 262.178 645.639C263.968 644.257 268.393 640.789 273.48 636.88C275.802 639.798 278.422 642.963 280.91 646.037C275.069 650.519 269.699 654.663 266.995 656.623C265.108 657.976 262.466 659.901 260.792 660.892L267.168 668.409C268.417 667.239 270.328 665.628 272.774 663.645C275.22 661.661 280.618 657.419 286.488 652.84C290.386 657.605 293.579 661.524 294.892 663.187C296.268 664.816 297.66 666.928 299.248 669.097L307.466 662.505C305.797 660.789 303.927 658.855 302.454 657.197C301.009 655.442 297.822 651.683 293.992 647.045C299.079 643.135 303.758 639.53 306.52 637.375C308.719 635.69 311.072 633.838 312.712 632.784L306.469 625.359C305.098 626.759 303.032 628.536 300.839 630.382C298.301 632.498 293.593 636.201 288.414 640.242C285.828 637.14 283.306 634.003 280.956 631.183C285.761 627.509 290.157 624.138 292.511 622.287C294.272 621.003 296.597 619.249 297.92 618.367L291.901 610.902C290.623 612.17 288.493 613.982 286.675 615.461C284.637 617.14 280.241 620.511 275.343 624.317C273.291 621.744 271.778 619.862 271.17 619.045C270.029 617.698 268.671 615.65 267.794 614.488L259.663 620.787C260.93 622.065 262.163 623.28 263.539 624.909ZM446.041 528.768L438.757 527.725C437.732 528.855 435.407 530.609 432.686 532.086L410.35 544.214C408.452 545.244 404.489 547.15 402.643 547.825L407.522 556.81C408.816 556.025 412.09 553.756 414.748 552.313L436.198 540.667C437.245 545.915 436.787 554.275 435.187 561.288C432.847 571.161 427.23 584.206 419.104 593.533L429.332 596.828C435.768 588.009 440.61 576.859 443.47 566.131C452.544 568.659 461.933 571.918 469.137 575.38L472.95 565.199C466.743 562.67 454.689 558.728 445.47 556.688C446.618 548.691 446.485 539.997 445.957 533.893C445.839 532.319 445.913 529.739 446.041 528.768ZM586.575 500.147C587.949 502.678 589.757 506.612 590.752 509.349L600.623 503.989C598.961 501.532 596.24 497.275 595.243 495.44L585.521 477.533C593.626 476.164 605.109 474.681 613.482 474.559L612.348 463.869C604.98 464.182 590.392 466.286 580.574 468.422L575.489 459.057C574.08 456.463 572.885 453.507 571.936 451.155L562.065 456.514C563.71 458.488 565.618 461.549 566.82 463.764L586.575 500.147ZM756.817 361.014L748.451 360.394C746.983 361.765 744.993 362.927 743.727 363.615L714.494 379.487C712.406 380.62 708.628 382.262 706.627 383.103L711.471 392.025C713.047 391.005 716.016 389.23 718.863 387.684L748.349 371.674C750.447 377.499 751.959 386.018 750.634 393.537C748.979 402.711 744.818 412.098 733.904 421.874L744.889 425.659C754.194 415.937 759.208 405.103 760.844 394.384C762.282 384.509 759.741 373.19 757.829 366.199C757.424 364.698 756.934 362.588 756.817 361.014ZM898.102 287.907L889.94 292.338C891.121 293.909 892.41 295.831 893.298 297.315C894.014 298.483 894.764 299.714 895.52 301.107L878.309 310.451C876.664 311.344 873.967 312.563 872.345 313.198L876.571 320.981C878.337 319.858 880.546 318.494 882.381 317.498L895.922 310.146C894.751 318.401 889.769 330.2 883.017 339.191L891.958 342.53C897.294 334.553 901.988 322.828 903.36 314.792C906.034 319.566 908.606 324.151 910.289 327.252C910.976 328.517 910.911 329.454 909.709 330.106C908.064 331 904.923 332.459 902.123 333.488L906.546 340.426C909.496 339.07 913.488 337.067 916.525 335.418C920.258 333.391 921.489 329.773 919.64 326.517C916.072 320.097 911.21 311.595 906.932 304.168L914.525 300.046C915.917 299.29 917.913 298.288 919.466 297.527L915.309 289.871C914.238 290.616 911.971 292.174 910.326 293.067L902.86 297.121C902.104 295.729 901.319 294.435 900.701 293.296C899.773 291.587 898.737 289.528 898.102 287.907ZM1020.24 234.616L1025.64 244.55C1027.88 243.089 1032.05 240.661 1035.65 238.703L1069.63 220.254C1072.29 218.811 1075.65 217.312 1077.21 216.55L1071.81 206.616C1070.24 207.636 1067.59 209.401 1064.62 211.016L1030.64 229.464C1027.35 231.251 1022.62 233.569 1020.24 234.616ZM1170.14 128.324L1174.57 136.486C1176.46 135.295 1179.05 133.725 1181.27 132.523L1206.64 118.746C1208.85 117.544 1211.39 116.33 1213.61 115.289L1209.18 107.126C1207.2 108.611 1204.74 110.112 1202.59 111.28L1177.15 125.091C1175.06 126.224 1172.4 127.506 1170.14 128.324ZM1171.59 148.507L1176.09 156.796C1177.8 155.708 1180.13 154.276 1182.03 153.245L1199.43 143.797C1202.06 149.25 1203.56 154.58 1203.1 159.911C1202.56 164.955 1200.13 171.03 1196.56 175.178L1206.88 176.537C1210.97 170.632 1213.16 163.051 1213.01 157.482C1212.88 151.816 1211.39 145.745 1208.23 139.022L1223.48 130.742C1225.25 129.78 1227.69 128.538 1229.34 127.806L1224.87 119.58C1223.36 120.726 1220.65 122.365 1219.32 123.086L1177.87 145.589C1175.91 146.654 1173.59 147.667 1171.59 148.507ZM1335.71 42.7655C1336.45 43.6749 1338.03 45.5225 1339.98 47.9052C1335.02 51.7456 1330.52 55.087 1328.45 56.5425C1326.62 57.8606 1324.79 59.0178 1322.8 60.1805L1329.25 67.9848C1331.09 66.2473 1332.57 65.0376 1334.35 63.4953C1336.14 62.1139 1340.57 58.646 1345.65 54.7369C1347.98 57.6547 1350.6 60.8202 1353.08 63.8935C1347.24 68.3758 1341.87 72.5199 1339.17 74.4799C1337.28 75.8324 1334.64 77.7581 1332.97 78.7489L1339.34 86.2658C1340.59 85.096 1342.5 83.485 1344.95 81.5015C1347.39 79.518 1352.79 75.2762 1358.66 70.6963C1362.56 75.4617 1365.75 79.381 1367.07 81.0442C1368.44 82.673 1369.83 84.7846 1371.42 86.954L1379.64 80.3617C1377.97 78.6461 1376.1 76.7117 1374.63 75.054C1373.18 73.2986 1370 69.5401 1366.17 64.9013C1371.25 60.9922 1375.93 57.3868 1378.69 55.2315C1380.89 53.5464 1383.25 51.6949 1384.89 50.6407L1378.64 43.2161C1377.27 44.6155 1375.21 46.3929 1373.01 48.2389C1370.48 50.3544 1365.77 54.0574 1360.59 58.0985C1358 54.9963 1355.48 51.8597 1353.13 49.0395C1357.94 45.3655 1362.33 41.9952 1364.69 40.1437C1366.45 38.8599 1368.77 37.106 1370.09 36.2237L1364.08 28.7592C1362.8 30.0266 1360.67 31.8383 1358.85 33.3174C1356.81 34.9971 1352.42 38.3674 1347.52 42.1735C1345.47 39.6009 1343.95 37.719 1343.34 36.9019C1342.2 35.555 1340.85 33.5068 1339.97 32.3443L1331.84 38.6438C1333.1 39.9219 1334.34 41.1367 1335.71 42.7655ZM1518.22 -53.3755L1510.93 -54.4181C1509.91 -53.2881 1507.58 -51.5342 1504.86 -50.057L1482.53 -37.9295C1480.63 -36.8988 1476.66 -34.993 1474.82 -34.3185L1479.7 -25.3334C1480.99 -26.1182 1484.26 -28.3874 1486.92 -29.8303L1508.37 -41.4768C1509.42 -36.2285 1508.96 -27.8686 1507.36 -20.8555C1505.02 -10.9822 1499.41 2.06238 1491.28 11.3901L1501.51 14.6852C1507.94 5.86561 1512.78 -5.28424 1515.64 -16.0127C1524.72 -13.4841 1534.11 -10.2251 1541.31 -6.76349L1545.12 -16.9442C1538.92 -19.473 1526.86 -23.4152 1517.64 -25.4557C1518.79 -33.4522 1518.66 -42.1465 1518.13 -48.25C1518.01 -49.8247 1518.09 -52.4046 1518.22 -53.3755ZM1658.75 -81.9967C1660.12 -79.4657 1661.93 -75.5318 1662.93 -72.7947L1672.8 -78.1541C1671.14 -80.611 1668.41 -84.8684 1667.42 -86.7034L1657.7 -104.61C1665.8 -105.979 1677.28 -107.463 1685.66 -107.585L1684.52 -118.275C1677.15 -117.961 1662.57 -115.858 1652.75 -113.722L1647.66 -123.086C1646.26 -125.681 1645.06 -128.637 1644.11 -130.989L1634.24 -125.629C1635.89 -123.655 1637.79 -120.594 1639 -118.38L1658.75 -81.9967Z" fill="#161616"/>
<path d="M-315.358 1153.41L-323.723 1152.79C-325.191 1154.16 -327.182 1155.33 -328.447 1156.01L-357.68 1171.89C-359.768 1173.02 -363.547 1174.66 -365.548 1175.5L-360.704 1184.42C-359.128 1183.4 -356.159 1181.63 -353.312 1180.08L-323.826 1164.07C-321.728 1169.9 -320.216 1178.42 -321.541 1185.94C-323.196 1195.11 -327.357 1204.5 -338.271 1214.27L-327.286 1218.06C-317.981 1208.34 -312.966 1197.5 -311.331 1186.78C-309.893 1176.91 -312.434 1165.59 -314.345 1158.6C-314.75 1157.1 -315.24 1154.99 -315.358 1153.41ZM-174.072 1080.31L-182.235 1084.74C-181.054 1086.31 -179.765 1088.23 -178.877 1089.71C-178.161 1090.88 -177.411 1092.11 -176.655 1093.51L-193.866 1102.85C-195.511 1103.74 -198.208 1104.96 -199.83 1105.6L-195.604 1113.38C-193.838 1112.26 -191.629 1110.89 -189.794 1109.9L-176.253 1102.54C-177.424 1110.8 -182.405 1122.6 -189.157 1131.59L-180.217 1134.93C-174.881 1126.95 -170.186 1115.23 -168.815 1107.19C-166.14 1111.96 -163.569 1116.55 -161.886 1119.65C-161.199 1120.92 -161.264 1121.85 -162.466 1122.5C-164.111 1123.4 -167.251 1124.86 -170.052 1125.89L-165.629 1132.82C-162.679 1131.47 -158.687 1129.47 -155.65 1127.82C-151.916 1125.79 -150.685 1122.17 -152.535 1118.92C-156.103 1112.5 -160.965 1103.99 -165.243 1096.57L-157.65 1092.44C-156.258 1091.69 -154.262 1090.69 -152.709 1089.93L-156.866 1082.27C-157.936 1083.01 -160.203 1084.57 -161.849 1085.47L-169.315 1089.52C-170.071 1088.13 -170.856 1086.83 -171.474 1085.69C-172.402 1083.99 -173.438 1081.93 -174.072 1080.31ZM-51.9311 1027.01L-46.5373 1036.95C-44.2992 1035.49 -40.1285 1033.06 -36.5218 1031.1L-2.5432 1012.65C0.114339 1011.21 3.47878 1009.71 5.03173 1008.95L-0.362071 999.015C-1.93851 1000.03 -4.58518 1001.8 -7.5591 1003.41L-41.5377 1021.86C-44.828 1023.65 -49.5501 1025.97 -51.9311 1027.01ZM97.9633 920.722L102.395 928.885C104.288 927.693 106.877 926.124 109.091 924.921L134.465 911.145C136.679 909.942 139.216 908.729 141.436 907.687L137.004 899.525C135.024 901.009 132.562 902.51 130.411 903.678L104.974 917.489C102.886 918.623 100.223 919.905 97.9633 920.722ZM99.4184 940.906L103.919 949.195C105.622 948.106 107.958 946.674 109.856 945.644L127.256 936.196C129.889 941.648 131.39 946.978 130.926 952.31C130.388 957.354 127.951 963.429 124.386 967.576L134.709 968.935C138.795 963.03 140.987 955.449 140.831 949.881C140.704 944.215 139.211 938.144 136.052 931.42L151.301 923.141C153.073 922.179 155.511 920.937 157.162 920.204L152.696 911.979C151.188 913.125 148.473 914.763 147.144 915.485L105.699 937.987C103.737 939.052 101.42 940.065 99.4184 940.906ZM263.539 835.164C264.279 836.073 265.856 837.921 267.805 840.304C262.844 844.144 258.35 847.485 256.273 848.941C254.448 850.259 252.619 851.416 250.629 852.579L257.078 860.383C258.92 858.646 260.394 857.436 262.178 855.894C263.968 854.512 268.393 851.044 273.48 847.135C275.802 850.053 278.422 853.219 280.91 856.292C275.069 860.774 269.699 864.918 266.995 866.878C265.108 868.231 262.466 870.156 260.792 871.147L267.168 878.664C268.417 877.494 270.328 875.883 272.774 873.9C275.22 871.916 280.618 867.675 286.488 863.095C290.386 867.86 293.579 871.779 294.892 873.443C296.268 875.071 297.66 877.183 299.248 879.352L307.466 872.76C305.797 871.044 303.927 869.11 302.454 867.452C301.009 865.697 297.822 861.939 293.992 857.3C299.079 853.391 303.758 849.785 306.52 847.63C308.719 845.945 311.072 844.093 312.712 843.039L306.469 835.614C305.098 837.014 303.032 838.791 300.839 840.637C298.301 842.753 293.593 846.456 288.414 850.497C285.828 847.395 283.306 844.258 280.956 841.438C285.761 837.764 290.157 834.394 292.511 832.542C294.272 831.258 296.597 829.504 297.92 828.622L291.901 821.158C290.623 822.425 288.493 824.237 286.675 825.716C284.637 827.395 280.241 830.766 275.343 834.572C273.291 831.999 271.778 830.117 271.17 829.3C270.029 827.953 268.671 825.905 267.794 824.743L259.663 831.042C260.93 832.32 262.163 833.535 263.539 835.164ZM446.041 739.023L438.757 737.98C437.732 739.11 435.407 740.864 432.686 742.341L410.35 754.469C408.452 755.5 404.489 757.405 402.643 758.08L407.522 767.065C408.816 766.28 412.09 764.011 414.748 762.568L436.198 750.922C437.245 756.17 436.787 764.53 435.187 771.543C432.847 781.416 427.23 794.461 419.104 803.789L429.332 807.084C435.768 798.264 440.61 787.114 443.47 776.386C452.544 778.914 461.933 782.173 469.137 785.635L472.95 775.454C466.743 772.925 454.689 768.983 445.47 766.943C446.618 758.946 446.485 750.252 445.957 744.148C445.839 742.574 445.913 739.994 446.041 739.023ZM586.575 710.402C587.949 712.933 589.757 716.867 590.752 719.604L600.623 714.244C598.961 711.788 596.24 707.53 595.243 705.695L585.521 687.788C593.626 686.419 605.109 684.936 613.482 684.814L612.348 674.124C604.98 674.437 590.392 676.541 580.574 678.677L575.489 669.312C574.08 666.718 572.885 663.762 571.936 661.41L562.065 666.769C563.71 668.743 565.618 671.804 566.82 674.019L586.575 710.402ZM756.817 571.269L748.451 570.649C746.983 572.02 744.993 573.183 743.727 573.87L714.494 589.742C712.406 590.876 708.628 592.517 706.627 593.358L711.471 602.28C713.047 601.26 716.016 599.485 718.863 597.939L748.349 581.929C750.447 587.754 751.959 596.273 750.634 603.792C748.979 612.966 744.818 622.353 733.904 632.129L744.889 635.914C754.194 626.192 759.208 615.359 760.844 604.639C762.282 594.764 759.741 583.445 757.829 576.454C757.424 574.953 756.934 572.844 756.817 571.269ZM898.102 498.162L889.94 502.594C891.121 504.165 892.41 506.086 893.298 507.571C894.014 508.738 894.764 509.97 895.52 511.362L878.309 520.706C876.664 521.6 873.967 522.818 872.345 523.453L876.571 531.236C878.337 530.113 880.546 528.75 882.381 527.753L895.922 520.401C894.751 528.656 889.769 540.455 883.017 549.447L891.958 552.785C897.294 544.808 901.988 533.083 903.36 525.047C906.034 529.822 908.606 534.406 910.289 537.507C910.976 538.772 910.911 539.709 909.709 540.362C908.064 541.255 904.923 542.714 902.123 543.743L906.546 550.681C909.496 549.325 913.488 547.322 916.525 545.673C920.258 543.646 921.489 540.028 919.64 536.772C916.072 530.352 911.21 521.85 906.932 514.423L914.525 510.301C915.917 509.545 917.913 508.543 919.466 507.782L915.309 500.126C914.238 500.871 911.971 502.429 910.326 503.322L902.86 507.376C902.104 505.984 901.319 504.69 900.701 503.551C899.773 501.843 898.737 499.783 898.102 498.162ZM1020.24 444.871L1025.64 454.805C1027.88 453.344 1032.05 450.916 1035.65 448.958L1069.63 430.509C1072.29 429.066 1075.65 427.567 1077.21 426.806L1071.81 416.871C1070.24 417.891 1067.59 419.656 1064.62 421.271L1030.64 439.72C1027.35 441.506 1022.62 443.824 1020.24 444.871ZM1170.14 338.579L1174.57 346.741C1176.46 345.55 1179.05 343.98 1181.27 342.778L1206.64 329.001C1208.85 327.799 1211.39 326.586 1213.61 325.544L1209.18 317.382C1207.2 318.866 1204.74 320.367 1202.59 321.535L1177.15 335.346C1175.06 336.48 1172.4 337.762 1170.14 338.579ZM1171.59 358.762L1176.09 367.051C1177.8 365.963 1180.13 364.531 1182.03 363.5L1199.43 354.053C1202.06 359.505 1203.56 364.835 1203.1 370.166C1202.56 375.21 1200.13 381.285 1196.56 385.433L1206.88 386.792C1210.97 380.887 1213.16 373.306 1213.01 367.737C1212.88 362.071 1211.39 356.001 1208.23 349.277L1223.48 340.997C1225.25 340.035 1227.69 338.793 1229.34 338.061L1224.87 329.835C1223.36 330.982 1220.65 332.62 1219.32 333.341L1177.87 355.844C1175.91 356.909 1173.59 357.922 1171.59 358.762ZM1335.71 253.021C1336.45 253.93 1338.03 255.778 1339.98 258.16C1335.02 262.001 1330.52 265.342 1328.45 266.798C1326.62 268.116 1324.79 269.273 1322.8 270.436L1329.25 278.24C1331.09 276.502 1332.57 275.293 1334.35 273.75C1336.14 272.369 1340.57 268.901 1345.65 264.992C1347.98 267.91 1350.6 271.075 1353.08 274.149C1347.24 278.631 1341.87 282.775 1339.17 284.735C1337.28 286.088 1334.64 288.013 1332.97 289.004L1339.34 296.521C1340.59 295.351 1342.5 293.74 1344.95 291.757C1347.39 289.773 1352.79 285.531 1358.66 280.951C1362.56 285.717 1365.75 289.636 1367.07 291.299C1368.44 292.928 1369.83 295.04 1371.42 297.209L1379.64 290.617C1377.97 288.901 1376.1 286.967 1374.63 285.309C1373.18 283.554 1370 279.795 1366.17 275.156C1371.25 271.247 1375.93 267.642 1378.69 265.487C1380.89 263.802 1383.25 261.95 1384.89 260.896L1378.64 253.471C1377.27 254.871 1375.21 256.648 1373.01 258.494C1370.48 260.61 1365.77 264.313 1360.59 268.354C1358 265.251 1355.48 262.115 1353.13 259.295C1357.94 255.621 1362.33 252.25 1364.69 250.399C1366.45 249.115 1368.77 247.361 1370.09 246.479L1364.08 239.014C1362.8 240.282 1360.67 242.093 1358.85 243.572C1356.81 245.252 1352.42 248.623 1347.52 252.429C1345.47 249.856 1343.95 247.974 1343.34 247.157C1342.2 245.81 1340.85 243.762 1339.97 242.599L1331.84 248.899C1333.1 250.177 1334.34 251.392 1335.71 253.021ZM1518.22 156.88L1510.93 155.837C1509.91 156.967 1507.58 158.721 1504.86 160.198L1482.53 172.326C1480.63 173.356 1476.66 175.262 1474.82 175.937L1479.7 184.922C1480.99 184.137 1484.26 181.868 1486.92 180.425L1508.37 168.778C1509.42 174.027 1508.96 182.387 1507.36 189.4C1505.02 199.273 1499.41 212.318 1491.28 221.645L1501.51 224.94C1507.94 216.121 1512.78 204.971 1515.64 194.242C1524.72 196.771 1534.11 200.03 1541.31 203.492L1545.12 193.311C1538.92 190.782 1526.86 186.84 1517.64 184.799C1518.79 176.803 1518.66 168.109 1518.13 162.005C1518.01 160.43 1518.09 157.85 1518.22 156.88ZM1658.75 128.258C1660.12 130.789 1661.93 134.723 1662.93 137.46L1672.8 132.101C1671.14 129.644 1668.41 125.387 1667.42 123.552L1657.7 105.645C1665.8 104.276 1677.28 102.792 1685.66 102.671L1684.52 91.9804C1677.15 92.2937 1662.57 94.3975 1652.75 96.5334L1647.66 87.1687C1646.26 84.5744 1645.06 81.6186 1644.11 79.2665L1634.24 84.626C1635.89 86.6001 1637.79 89.6608 1639 91.8754L1658.75 128.258Z" fill="#161616"/>
<path d="M-315.358 1363.67L-323.723 1363.05C-325.191 1364.42 -327.182 1365.58 -328.447 1366.27L-357.68 1382.14C-359.768 1383.27 -363.547 1384.92 -365.548 1385.76L-360.704 1394.68C-359.128 1393.66 -356.159 1391.88 -353.312 1390.34L-323.826 1374.33C-321.728 1380.15 -320.216 1388.67 -321.541 1396.19C-323.196 1405.36 -327.357 1414.75 -338.271 1424.53L-327.286 1428.31C-317.981 1418.59 -312.966 1407.76 -311.331 1397.04C-309.893 1387.16 -312.434 1375.84 -314.345 1368.85C-314.75 1367.35 -315.24 1365.24 -315.358 1363.67ZM-174.072 1290.56L-182.235 1294.99C-181.054 1296.56 -179.765 1298.48 -178.877 1299.97C-178.161 1301.14 -177.411 1302.37 -176.655 1303.76L-193.866 1313.1C-195.511 1314 -198.208 1315.22 -199.83 1315.85L-195.604 1323.63C-193.838 1322.51 -191.629 1321.15 -189.794 1320.15L-176.253 1312.8C-177.424 1321.05 -182.405 1332.85 -189.157 1341.85L-180.217 1345.18C-174.881 1337.21 -170.186 1325.48 -168.815 1317.45C-166.14 1322.22 -163.569 1326.8 -161.886 1329.91C-161.199 1331.17 -161.264 1332.11 -162.466 1332.76C-164.111 1333.65 -167.251 1335.11 -170.052 1336.14L-165.629 1343.08C-162.679 1341.72 -158.687 1339.72 -155.65 1338.07C-151.916 1336.04 -150.685 1332.43 -152.535 1329.17C-156.103 1322.75 -160.965 1314.25 -165.243 1306.82L-157.65 1302.7C-156.258 1301.94 -154.262 1300.94 -152.709 1300.18L-156.866 1292.52C-157.936 1293.27 -160.203 1294.83 -161.849 1295.72L-169.315 1299.77C-170.071 1298.38 -170.856 1297.09 -171.474 1295.95C-172.402 1294.24 -173.438 1292.18 -174.072 1290.56ZM-51.9311 1237.27L-46.5373 1247.2C-44.2992 1245.74 -40.1285 1243.31 -36.5218 1241.36L-2.5432 1222.91C0.114339 1221.46 3.47878 1219.97 5.03173 1219.2L-0.362071 1209.27C-1.93851 1210.29 -4.58518 1212.05 -7.5591 1213.67L-41.5377 1232.12C-44.828 1233.9 -49.5501 1236.22 -51.9311 1237.27ZM97.9633 1130.98L102.395 1139.14C104.288 1137.95 106.877 1136.38 109.091 1135.18L134.465 1121.4C136.679 1120.2 139.216 1118.98 141.436 1117.94L137.004 1109.78C135.024 1111.26 132.562 1112.77 130.411 1113.93L104.974 1127.74C102.886 1128.88 100.223 1130.16 97.9633 1130.98ZM99.4184 1151.16L103.919 1159.45C105.622 1158.36 107.958 1156.93 109.856 1155.9L127.256 1146.45C129.889 1151.9 131.39 1157.23 130.926 1162.56C130.388 1167.61 127.951 1173.68 124.386 1177.83L134.709 1179.19C138.795 1173.29 140.987 1165.7 140.831 1160.14C140.704 1154.47 139.211 1148.4 136.052 1141.68L151.301 1133.4C153.073 1132.43 155.511 1131.19 157.162 1130.46L152.696 1122.23C151.188 1123.38 148.473 1125.02 147.144 1125.74L105.699 1148.24C103.737 1149.31 101.42 1150.32 99.4184 1151.16ZM263.539 1045.42C264.279 1046.33 265.856 1048.18 267.805 1050.56C262.844 1054.4 258.35 1057.74 256.273 1059.2C254.448 1060.51 252.619 1061.67 250.629 1062.83L257.078 1070.64C258.92 1068.9 260.394 1067.69 262.178 1066.15C263.968 1064.77 268.393 1061.3 273.48 1057.39C275.802 1060.31 278.422 1063.47 280.91 1066.55C275.069 1071.03 269.699 1075.17 266.995 1077.13C265.108 1078.49 262.466 1080.41 260.792 1081.4L267.168 1088.92C268.417 1087.75 270.328 1086.14 272.774 1084.15C275.22 1082.17 280.618 1077.93 286.488 1073.35C290.386 1078.12 293.579 1082.03 294.892 1083.7C296.268 1085.33 297.66 1087.44 299.248 1089.61L307.466 1083.02C305.797 1081.3 303.927 1079.37 302.454 1077.71C301.009 1075.95 297.822 1072.19 293.992 1067.55C299.079 1063.65 303.758 1060.04 306.52 1057.89C308.719 1056.2 311.072 1054.35 312.712 1053.29L306.469 1045.87C305.098 1047.27 303.032 1049.05 300.839 1050.89C298.301 1053.01 293.593 1056.71 288.414 1060.75C285.828 1057.65 283.306 1054.51 280.956 1051.69C285.761 1048.02 290.157 1044.65 292.511 1042.8C294.272 1041.51 296.597 1039.76 297.92 1038.88L291.901 1031.41C290.623 1032.68 288.493 1034.49 286.675 1035.97C284.637 1037.65 280.241 1041.02 275.343 1044.83C273.291 1042.25 271.778 1040.37 271.17 1039.56C270.029 1038.21 268.671 1036.16 267.794 1035L259.663 1041.3C260.93 1042.58 262.163 1043.79 263.539 1045.42ZM446.041 949.278L438.757 948.235C437.732 949.365 435.407 951.119 432.686 952.597L410.35 964.724C408.452 965.755 404.489 967.661 402.643 968.335L407.522 977.32C408.816 976.535 412.09 974.266 414.748 972.823L436.198 961.177C437.245 966.425 436.787 974.785 435.187 981.798C432.847 991.671 427.23 1004.72 419.104 1014.04L429.332 1017.34C435.768 1008.52 440.61 997.369 443.47 986.641C452.544 989.169 461.933 992.428 469.137 995.89L472.95 985.709C466.743 983.181 454.689 979.238 445.47 977.198C446.618 969.201 446.485 960.507 445.957 954.404C445.839 952.829 445.913 950.249 446.041 949.278ZM586.575 920.657C587.949 923.188 589.757 927.122 590.752 929.859L600.623 924.5C598.961 922.043 596.24 917.785 595.243 915.95L585.521 898.043C593.626 896.674 605.109 895.191 613.482 895.069L612.348 884.379C604.98 884.692 590.392 886.796 580.574 888.932L575.489 879.567C574.08 876.973 572.885 874.017 571.936 871.665L562.065 877.024C563.71 878.999 565.618 882.059 566.82 884.274L586.575 920.657ZM756.817 781.524L748.451 780.905C746.983 782.275 744.993 783.438 743.727 784.125L714.494 799.997C712.406 801.131 708.628 802.773 706.627 803.613L711.471 812.535C713.047 811.515 716.016 809.74 718.863 808.194L748.349 792.184C750.447 798.009 751.959 806.528 750.634 814.047C748.979 823.221 744.818 832.608 733.904 842.384L744.889 846.169C754.194 836.447 759.208 825.614 760.844 814.894C762.282 805.019 759.741 793.7 757.829 786.709C757.424 785.209 756.934 783.099 756.817 781.524ZM898.102 708.417L889.94 712.849C891.121 714.42 892.41 716.341 893.298 717.826C894.014 718.994 894.764 720.225 895.52 721.617L878.309 730.961C876.664 731.855 873.967 733.073 872.345 733.708L876.571 741.491C878.337 740.368 880.546 739.005 882.381 738.008L895.922 730.656C894.751 738.911 889.769 750.71 883.017 759.702L891.958 763.04C897.294 755.063 901.988 743.339 903.36 735.302C906.034 740.077 908.606 744.661 910.289 747.762C910.976 749.027 910.911 749.964 909.709 750.617C908.064 751.51 904.923 752.969 902.123 753.998L906.546 760.937C909.496 759.58 913.488 757.577 916.525 755.928C920.258 753.901 921.489 750.283 919.64 747.027C916.072 740.607 911.21 732.105 906.932 724.679L914.525 720.556C915.917 719.8 917.913 718.798 919.466 718.037L915.309 710.381C914.238 711.126 911.971 712.684 910.326 713.578L902.86 717.632C902.104 716.24 901.319 714.945 900.701 713.806C899.773 712.098 898.737 710.039 898.102 708.417ZM1020.24 655.126L1025.64 665.06C1027.88 663.599 1032.05 661.171 1035.65 659.213L1069.63 640.764C1072.29 639.321 1075.65 637.822 1077.21 637.061L1071.81 627.127C1070.24 628.146 1067.59 629.911 1064.62 631.526L1030.64 649.975C1027.35 651.761 1022.62 654.079 1020.24 655.126ZM1170.14 548.834L1174.57 556.996C1176.46 555.805 1179.05 554.235 1181.27 553.033L1206.64 539.256C1208.85 538.054 1211.39 536.841 1213.61 535.799L1209.18 527.637C1207.2 529.121 1204.74 530.622 1202.59 531.79L1177.15 545.601C1175.06 546.735 1172.4 548.017 1170.14 548.834ZM1171.59 569.018L1176.09 577.307C1177.8 576.218 1180.13 574.786 1182.03 573.755L1199.43 564.308C1202.06 569.76 1203.56 575.09 1203.1 580.421C1202.56 585.466 1200.13 591.54 1196.56 595.688L1206.88 597.047C1210.97 591.142 1213.16 583.561 1213.01 577.993C1212.88 572.327 1211.39 566.256 1208.23 559.532L1223.48 551.253C1225.25 550.291 1227.69 549.048 1229.34 548.316L1224.87 540.09C1223.36 541.237 1220.65 542.875 1219.32 543.596L1177.87 566.099C1175.91 567.164 1173.59 568.177 1171.59 569.018ZM1335.71 463.276C1336.45 464.185 1338.03 466.033 1339.98 468.415C1335.02 472.256 1330.52 475.597 1328.45 477.053C1326.62 478.371 1324.79 479.528 1322.8 480.691L1329.25 488.495C1331.09 486.758 1332.57 485.548 1334.35 484.006C1336.14 482.624 1340.57 479.156 1345.65 475.247C1347.98 478.165 1350.6 481.33 1353.08 484.404C1347.24 488.886 1341.87 493.03 1339.17 494.99C1337.28 496.343 1334.64 498.268 1332.97 499.259L1339.34 506.776C1340.59 505.606 1342.5 503.995 1344.95 502.012C1347.39 500.028 1352.79 495.786 1358.66 491.207C1362.56 495.972 1365.75 499.891 1367.07 501.554C1368.44 503.183 1369.83 505.295 1371.42 507.464L1379.64 500.872C1377.97 499.156 1376.1 497.222 1374.63 495.564C1373.18 493.809 1370 490.05 1366.17 485.412C1371.25 481.502 1375.93 477.897 1378.69 475.742C1380.89 474.057 1383.25 472.205 1384.89 471.151L1378.64 463.726C1377.27 465.126 1375.21 466.903 1373.01 468.749C1370.48 470.865 1365.77 474.568 1360.59 478.609C1358 475.507 1355.48 472.37 1353.13 469.55C1357.94 465.876 1362.33 462.505 1364.69 460.654C1366.45 459.37 1368.77 457.616 1370.09 456.734L1364.08 449.269C1362.8 450.537 1360.67 452.349 1358.85 453.828C1356.81 455.507 1352.42 458.878 1347.52 462.684C1345.47 460.111 1343.95 458.229 1343.34 457.412C1342.2 456.065 1340.85 454.017 1339.97 452.855L1331.84 459.154C1333.1 460.432 1334.34 461.647 1335.71 463.276ZM1518.22 367.135L1510.93 366.092C1509.91 367.222 1507.58 368.976 1504.86 370.453L1482.53 382.581C1480.63 383.611 1476.66 385.517 1474.82 386.192L1479.7 395.177C1480.99 394.392 1484.26 392.123 1486.92 390.68L1508.37 379.033C1509.42 384.282 1508.96 392.642 1507.36 399.655C1505.02 409.528 1499.41 422.573 1491.28 431.9L1501.51 435.195C1507.94 426.376 1512.78 415.226 1515.64 404.498C1524.72 407.026 1534.11 410.285 1541.31 413.747L1545.12 403.566C1538.92 401.037 1526.86 397.095 1517.64 395.055C1518.79 387.058 1518.66 378.364 1518.13 372.26C1518.01 370.686 1518.09 368.106 1518.22 367.135ZM1658.75 338.514C1660.12 341.045 1661.93 344.978 1662.93 347.716L1672.8 342.356C1671.14 339.899 1668.41 335.642 1667.42 333.807L1657.7 315.9C1665.8 314.531 1677.28 313.047 1685.66 312.926L1684.52 302.236C1677.15 302.549 1662.57 304.653 1652.75 306.789L1647.66 297.424C1646.26 294.83 1645.06 291.874 1644.11 289.522L1634.24 294.881C1635.89 296.855 1637.79 299.916 1639 302.131L1658.75 338.514Z" fill="#161616"/>
<path d="M-315.358 1573.92L-323.723 1573.3C-325.191 1574.67 -327.182 1575.84 -328.447 1576.52L-357.68 1592.4C-359.768 1593.53 -363.547 1595.17 -365.548 1596.01L-360.704 1604.93C-359.128 1603.91 -356.159 1602.14 -353.312 1600.59L-323.826 1584.58C-321.728 1590.41 -320.216 1598.93 -321.541 1606.45C-323.196 1615.62 -327.357 1625.01 -338.271 1634.78L-327.286 1638.57C-317.981 1628.85 -312.966 1618.01 -311.331 1607.29C-309.893 1597.42 -312.434 1586.1 -314.345 1579.11C-314.75 1577.61 -315.24 1575.5 -315.358 1573.92ZM-174.072 1500.82L-182.235 1505.25C-181.054 1506.82 -179.765 1508.74 -178.877 1510.22C-178.161 1511.39 -177.411 1512.62 -176.655 1514.02L-193.866 1523.36C-195.511 1524.25 -198.208 1525.47 -199.83 1526.11L-195.604 1533.89C-193.838 1532.77 -191.629 1531.4 -189.794 1530.41L-176.253 1523.05C-177.424 1531.31 -182.405 1543.11 -189.157 1552.1L-180.217 1555.44C-174.881 1547.46 -170.186 1535.74 -168.815 1527.7C-166.14 1532.48 -163.569 1537.06 -161.886 1540.16C-161.199 1541.43 -161.264 1542.36 -162.466 1543.02C-164.111 1543.91 -167.251 1545.37 -170.052 1546.4L-165.629 1553.34C-162.679 1551.98 -158.687 1549.98 -155.65 1548.33C-151.916 1546.3 -150.685 1542.68 -152.535 1539.43C-156.103 1533.01 -160.965 1524.5 -165.243 1517.08L-157.65 1512.95C-156.258 1512.2 -154.262 1511.2 -152.709 1510.44L-156.866 1502.78C-157.936 1503.52 -160.203 1505.08 -161.849 1505.98L-169.315 1510.03C-170.071 1508.64 -170.856 1507.34 -171.474 1506.2C-172.402 1504.5 -173.438 1502.44 -174.072 1500.82ZM-51.9311 1447.52L-46.5373 1457.46C-44.2992 1456 -40.1285 1453.57 -36.5218 1451.61L-2.5432 1433.16C0.114339 1431.72 3.47878 1430.22 5.03173 1429.46L-0.362071 1419.52C-1.93851 1420.54 -4.58518 1422.31 -7.5591 1423.92L-41.5377 1442.37C-44.828 1444.16 -49.5501 1446.48 -51.9311 1447.52ZM97.9633 1341.23L102.395 1349.39C104.288 1348.2 106.877 1346.63 109.091 1345.43L134.465 1331.65C136.679 1330.45 139.216 1329.24 141.436 1328.2L137.004 1320.04C135.024 1321.52 132.562 1323.02 130.411 1324.19L104.974 1338C102.886 1339.13 100.223 1340.42 97.9633 1341.23ZM99.4184 1361.42L103.919 1369.71C105.622 1368.62 107.958 1367.18 109.856 1366.15L127.256 1356.71C129.889 1362.16 131.39 1367.49 130.926 1372.82C130.388 1377.86 127.951 1383.94 124.386 1388.09L134.709 1389.45C138.795 1383.54 140.987 1375.96 140.831 1370.39C140.704 1364.73 139.211 1358.65 136.052 1351.93L151.301 1343.65C153.073 1342.69 155.511 1341.45 157.162 1340.71L152.696 1332.49C151.188 1333.64 148.473 1335.27 147.144 1335.99L105.699 1358.5C103.737 1359.56 101.42 1360.58 99.4184 1361.42ZM263.539 1255.67C264.279 1256.58 265.856 1258.43 267.805 1260.81C262.844 1264.65 258.35 1268 256.273 1269.45C254.448 1270.77 252.619 1271.93 250.629 1273.09L257.078 1280.89C258.92 1279.16 260.394 1277.95 262.178 1276.4C263.968 1275.02 268.393 1271.55 273.48 1267.65C275.802 1270.56 278.422 1273.73 280.91 1276.8C275.069 1281.28 269.699 1285.43 266.995 1287.39C265.108 1288.74 262.466 1290.67 260.792 1291.66L267.168 1299.17C268.417 1298 270.328 1296.39 272.774 1294.41C275.22 1292.43 280.618 1288.18 286.488 1283.6C290.386 1288.37 293.579 1292.29 294.892 1293.95C296.268 1295.58 297.66 1297.69 299.248 1299.86L307.466 1293.27C305.797 1291.55 303.927 1289.62 302.454 1287.96C301.009 1286.21 297.822 1282.45 293.992 1277.81C299.079 1273.9 303.758 1270.3 306.52 1268.14C308.719 1266.46 311.072 1264.6 312.712 1263.55L306.469 1256.12C305.098 1257.52 303.032 1259.3 300.839 1261.15C298.301 1263.26 293.593 1266.97 288.414 1271.01C285.828 1267.9 283.306 1264.77 280.956 1261.95C285.761 1258.27 290.157 1254.9 292.511 1253.05C294.272 1251.77 296.597 1250.01 297.92 1249.13L291.901 1241.67C290.623 1242.94 288.493 1244.75 286.675 1246.23C284.637 1247.91 280.241 1251.28 275.343 1255.08C273.291 1252.51 271.778 1250.63 271.17 1249.81C270.029 1248.46 268.671 1246.42 267.794 1245.25L259.663 1251.55C260.93 1252.83 262.163 1254.05 263.539 1255.67ZM446.041 1159.53L438.757 1158.49C437.732 1159.62 435.407 1161.37 432.686 1162.85L410.35 1174.98C408.452 1176.01 404.489 1177.92 402.643 1178.59L407.522 1187.58C408.816 1186.79 412.09 1184.52 414.748 1183.08L436.198 1171.43C437.245 1176.68 436.787 1185.04 435.187 1192.05C432.847 1201.93 427.23 1214.97 419.104 1224.3L429.332 1227.59C435.768 1218.77 440.61 1207.62 443.47 1196.9C452.544 1199.42 461.933 1202.68 469.137 1206.15L472.95 1195.96C466.743 1193.44 454.689 1189.49 445.47 1187.45C446.618 1179.46 446.485 1170.76 445.957 1164.66C445.839 1163.08 445.913 1160.5 446.041 1159.53ZM586.575 1130.91C587.949 1133.44 589.757 1137.38 590.752 1140.11L600.623 1134.75C598.961 1132.3 596.24 1128.04 595.243 1126.21L585.521 1108.3C593.626 1106.93 605.109 1105.45 613.482 1105.32L612.348 1094.63C604.98 1094.95 590.392 1097.05 580.574 1099.19L575.489 1089.82C574.08 1087.23 572.885 1084.27 571.936 1081.92L562.065 1087.28C563.71 1089.25 565.618 1092.31 566.82 1094.53L586.575 1130.91ZM756.817 991.779L748.451 991.16C746.983 992.53 744.993 993.693 743.727 994.38L714.494 1010.25C712.406 1011.39 708.628 1013.03 706.627 1013.87L711.471 1022.79C713.047 1021.77 716.016 1019.99 718.863 1018.45L748.349 1002.44C750.447 1008.26 751.959 1016.78 750.634 1024.3C748.979 1033.48 744.818 1042.86 733.904 1052.64L744.889 1056.42C754.194 1046.7 759.208 1035.87 760.844 1025.15C762.282 1015.27 759.741 1003.96 757.829 996.964C757.424 995.464 756.934 993.354 756.817 991.779ZM898.102 918.672L889.94 923.104C891.121 924.675 892.41 926.597 893.298 928.081C894.014 929.249 894.764 930.48 895.52 931.872L878.309 941.217C876.664 942.11 873.967 943.329 872.345 943.963L876.571 951.746C878.337 950.623 880.546 949.26 882.381 948.264L895.922 940.912C894.751 949.167 889.769 960.966 883.017 969.957L891.958 973.295C897.294 965.318 901.988 953.594 903.36 945.557C906.034 950.332 908.606 954.917 910.289 958.017C910.976 959.283 910.911 960.219 909.709 960.872C908.064 961.765 904.923 963.224 902.123 964.253L906.546 971.192C909.496 969.835 913.488 967.832 916.525 966.183C920.258 964.156 921.489 960.538 919.64 957.282C916.072 950.863 911.21 942.36 906.932 934.934L914.525 930.811C915.917 930.055 917.913 929.053 919.466 928.292L915.309 920.636C914.238 921.381 911.971 922.939 910.326 923.833L902.86 927.887C902.104 926.495 901.319 925.2 900.701 924.061C899.773 922.353 898.737 920.294 898.102 918.672ZM1020.24 865.381L1025.64 875.315C1027.88 873.855 1032.05 871.426 1035.65 869.468L1069.63 851.019C1072.29 849.576 1075.65 848.077 1077.21 847.316L1071.81 837.382C1070.24 838.401 1067.59 840.166 1064.62 841.781L1030.64 860.23C1027.35 862.016 1022.62 864.334 1020.24 865.381ZM1170.14 759.089L1174.57 767.252C1176.46 766.06 1179.05 764.491 1181.27 763.288L1206.64 749.512C1208.85 748.309 1211.39 747.096 1213.61 746.054L1209.18 737.892C1207.2 739.376 1204.74 740.877 1202.59 742.045L1177.15 755.856C1175.06 756.99 1172.4 758.272 1170.14 759.089ZM1171.59 779.273L1176.09 787.562C1177.8 786.473 1180.13 785.041 1182.03 784.011L1199.43 774.563C1202.06 780.015 1203.56 785.345 1203.1 790.677C1202.56 795.721 1200.13 801.796 1196.56 805.943L1206.88 807.302C1210.97 801.397 1213.16 793.816 1213.01 788.248C1212.88 782.582 1211.39 776.511 1208.23 769.787L1223.48 761.508C1225.25 760.546 1227.69 759.304 1229.34 758.571L1224.87 750.345C1223.36 751.492 1220.65 753.13 1219.32 753.851L1177.87 776.354C1175.91 777.419 1173.59 778.432 1171.59 779.273ZM1335.71 673.531C1336.45 674.44 1338.03 676.288 1339.98 678.671C1335.02 682.511 1330.52 685.852 1328.45 687.308C1326.62 688.626 1324.79 689.783 1322.8 690.946L1329.25 698.75C1331.09 697.013 1332.57 695.803 1334.35 694.261C1336.14 692.879 1340.57 689.411 1345.65 685.502C1347.98 688.42 1350.6 691.586 1353.08 694.659C1347.24 699.141 1341.87 703.285 1339.17 705.245C1337.28 706.598 1334.64 708.523 1332.97 709.514L1339.34 717.031C1340.59 715.861 1342.5 714.25 1344.95 712.267C1347.39 710.283 1352.79 706.042 1358.66 701.462C1362.56 706.227 1365.75 710.146 1367.07 711.81C1368.44 713.438 1369.83 715.55 1371.42 717.719L1379.64 711.127C1377.97 709.411 1376.1 707.477 1374.63 705.819C1373.18 704.064 1370 700.306 1366.17 695.667C1371.25 691.758 1375.93 688.152 1378.69 685.997C1380.89 684.312 1383.25 682.46 1384.89 681.406L1378.64 673.981C1377.27 675.381 1375.21 677.158 1373.01 679.004C1370.48 681.12 1365.77 684.823 1360.59 688.864C1358 685.762 1355.48 682.625 1353.13 679.805C1357.94 676.131 1362.33 672.761 1364.69 670.909C1366.45 669.625 1368.77 667.871 1370.09 666.989L1364.08 659.525C1362.8 660.792 1360.67 662.604 1358.85 664.083C1356.81 665.762 1352.42 669.133 1347.52 672.939C1345.47 670.366 1343.95 668.484 1343.34 667.667C1342.2 666.32 1340.85 664.272 1339.97 663.11L1331.84 669.409C1333.1 670.687 1334.34 671.902 1335.71 673.531ZM1518.22 577.39L1510.93 576.347C1509.91 577.477 1507.58 579.231 1504.86 580.708L1482.53 592.836C1480.63 593.867 1476.66 595.772 1474.82 596.447L1479.7 605.432C1480.99 604.647 1484.26 602.378 1486.92 600.935L1508.37 589.289C1509.42 594.537 1508.96 602.897 1507.36 609.91C1505.02 619.783 1499.41 632.828 1491.28 642.155L1501.51 645.451C1507.94 636.631 1512.78 625.481 1515.64 614.753C1524.72 617.281 1534.11 620.54 1541.31 624.002L1545.12 613.821C1538.92 611.292 1526.86 607.35 1517.64 605.31C1518.79 597.313 1518.66 588.619 1518.13 582.515C1518.01 580.941 1518.09 578.361 1518.22 577.39ZM1658.75 548.769C1660.12 551.3 1661.93 555.234 1662.93 557.971L1672.8 552.611C1671.14 550.154 1668.41 545.897 1667.42 544.062L1657.7 526.155C1665.8 524.786 1677.28 523.303 1685.66 523.181L1684.52 512.491C1677.15 512.804 1662.57 514.908 1652.75 517.044L1647.66 507.679C1646.26 505.085 1645.06 502.129 1644.11 499.777L1634.24 505.136C1635.89 507.11 1637.79 510.171 1639 512.386L1658.75 548.769Z" fill="#161616"/>
<path d="M-315.358 1784.18L-323.724 1783.56C-325.191 1784.93 -327.182 1786.09 -328.447 1786.78L-357.68 1802.65C-359.768 1803.78 -363.547 1805.43 -365.548 1806.27L-360.704 1815.19C-359.128 1814.17 -356.159 1812.39 -353.312 1810.85L-323.826 1794.84C-321.728 1800.66 -320.216 1809.18 -321.541 1816.7C-323.196 1825.87 -327.357 1835.26 -338.271 1845.04L-327.286 1848.82C-317.981 1839.1 -312.967 1828.27 -311.331 1817.55C-309.893 1807.67 -312.434 1796.35 -314.345 1789.36C-314.75 1787.86 -315.241 1785.75 -315.358 1784.18ZM-174.072 1711.07L-182.235 1715.5C-181.054 1717.07 -179.765 1719 -178.877 1720.48C-178.161 1721.65 -177.411 1722.88 -176.655 1724.27L-193.866 1733.62C-195.511 1734.51 -198.208 1735.73 -199.83 1736.36L-195.604 1744.14C-193.838 1743.02 -191.629 1741.66 -189.794 1740.66L-176.253 1733.31C-177.424 1741.57 -182.406 1753.36 -189.158 1762.36L-180.217 1765.69C-174.881 1757.72 -170.186 1745.99 -168.815 1737.96C-166.141 1742.73 -163.569 1747.32 -161.886 1750.42C-161.199 1751.68 -161.264 1752.62 -162.466 1753.27C-164.111 1754.16 -167.251 1755.62 -170.052 1756.65L-165.629 1763.59C-162.679 1762.23 -158.687 1760.23 -155.65 1758.58C-151.916 1756.55 -150.686 1752.94 -152.535 1749.68C-156.103 1743.26 -160.965 1734.76 -165.243 1727.33L-157.65 1723.21C-156.258 1722.45 -154.262 1721.45 -152.709 1720.69L-156.866 1713.03C-157.937 1713.78 -160.204 1715.34 -161.849 1716.23L-169.315 1720.29C-170.071 1718.89 -170.856 1717.6 -171.474 1716.46C-172.402 1714.75 -173.438 1712.69 -174.072 1711.07ZM-51.9312 1657.78L-46.5374 1667.71C-44.2993 1666.25 -40.1286 1663.82 -36.5219 1661.87L-2.54333 1643.42C0.114217 1641.97 3.47866 1640.48 5.03161 1639.71L-0.362193 1629.78C-1.93863 1630.8 -4.5853 1632.56 -7.55922 1634.18L-41.5378 1652.63C-44.8281 1654.41 -49.5502 1656.73 -51.9312 1657.78ZM97.9632 1551.49L102.395 1559.65C104.288 1558.46 106.877 1556.89 109.091 1555.69L134.464 1541.91C136.679 1540.71 139.216 1539.49 141.436 1538.45L137.004 1530.29C135.024 1531.77 132.562 1533.28 130.411 1534.44L104.974 1548.25C102.886 1549.39 100.223 1550.67 97.9632 1551.49ZM99.4183 1571.67L103.919 1579.96C105.622 1578.87 107.958 1577.44 109.856 1576.41L127.256 1566.96C129.889 1572.41 131.39 1577.74 130.926 1583.08C130.388 1588.12 127.951 1594.19 124.386 1598.34L134.709 1599.7C138.795 1593.8 140.987 1586.21 140.831 1580.65C140.704 1574.98 139.211 1568.91 136.052 1562.19L151.301 1553.91C153.073 1552.94 155.511 1551.7 157.162 1550.97L152.696 1542.74C151.188 1543.89 148.473 1545.53 147.144 1546.25L105.699 1568.75C103.737 1569.82 101.42 1570.83 99.4183 1571.67ZM263.539 1465.93C264.279 1466.84 265.855 1468.69 267.805 1471.07C262.844 1474.91 258.35 1478.25 256.272 1479.71C254.448 1481.02 252.619 1482.18 250.628 1483.34L257.078 1491.15C258.92 1489.41 260.393 1488.2 262.178 1486.66C263.967 1485.28 268.393 1481.81 273.48 1477.9C275.802 1480.82 278.422 1483.98 280.91 1487.06C275.069 1491.54 269.699 1495.68 266.995 1497.64C265.107 1499 262.466 1500.92 260.792 1501.91L267.167 1509.43C268.417 1508.26 270.328 1506.65 272.774 1504.67C275.219 1502.68 280.618 1498.44 286.488 1493.86C290.386 1498.63 293.579 1502.54 294.892 1504.21C296.268 1505.84 297.66 1507.95 299.247 1510.12L307.466 1503.53C305.797 1501.81 303.927 1499.88 302.454 1498.22C301.009 1496.46 297.821 1492.7 293.992 1488.07C299.079 1484.16 303.758 1480.55 306.52 1478.4C308.718 1476.71 311.072 1474.86 312.712 1473.8L306.469 1466.38C305.098 1467.78 303.032 1469.56 300.839 1471.4C298.301 1473.52 293.593 1477.22 288.414 1481.26C285.828 1478.16 283.306 1475.02 280.956 1472.2C285.761 1468.53 290.157 1465.16 292.511 1463.31C294.272 1462.02 296.597 1460.27 297.92 1459.39L291.901 1451.92C290.623 1453.19 288.493 1455 286.675 1456.48C284.637 1458.16 280.241 1461.53 275.343 1465.34C273.291 1462.76 271.778 1460.88 271.17 1460.07C270.029 1458.72 268.671 1456.67 267.794 1455.51L259.663 1461.81C260.93 1463.09 262.163 1464.3 263.539 1465.93ZM446.041 1369.79L438.757 1368.75C437.732 1369.88 435.407 1371.63 432.686 1373.11L410.35 1385.23C408.452 1386.27 404.489 1388.17 402.643 1388.85L407.522 1397.83C408.816 1397.05 412.09 1394.78 414.748 1393.33L436.198 1381.69C437.245 1386.94 436.787 1395.3 435.187 1402.31C432.847 1412.18 427.23 1425.23 419.104 1434.55L429.332 1437.85C435.768 1429.03 440.61 1417.88 443.47 1407.15C452.544 1409.68 461.933 1412.94 469.137 1416.4L472.949 1406.22C466.743 1403.69 454.689 1399.75 445.47 1397.71C446.618 1389.71 446.485 1381.02 445.957 1374.91C445.839 1373.34 445.913 1370.76 446.041 1369.79ZM586.575 1341.17C587.949 1343.7 589.757 1347.63 590.752 1350.37L600.622 1345.01C598.961 1342.55 596.24 1338.3 595.243 1336.46L585.521 1318.55C593.625 1317.18 605.109 1315.7 613.482 1315.58L612.347 1304.89C604.98 1305.2 590.392 1307.31 580.573 1309.44L575.489 1300.08C574.08 1297.48 572.885 1294.53 571.936 1292.18L562.065 1297.53C563.71 1299.51 565.618 1302.57 566.82 1304.78L586.575 1341.17ZM756.816 1202.03L748.451 1201.41C746.983 1202.79 744.993 1203.95 743.727 1204.64L714.494 1220.51C712.406 1221.64 708.628 1223.28 706.626 1224.12L711.471 1233.05C713.047 1232.03 716.015 1230.25 718.863 1228.7L748.349 1212.69C750.447 1218.52 751.959 1227.04 750.634 1234.56C748.979 1243.73 744.817 1253.12 733.904 1262.89L744.889 1266.68C754.194 1256.96 759.208 1246.12 760.843 1235.4C762.282 1225.53 759.741 1214.21 757.829 1207.22C757.424 1205.72 756.934 1203.61 756.816 1202.03ZM898.102 1128.93L889.94 1133.36C891.12 1134.93 892.41 1136.85 893.297 1138.34C894.014 1139.5 894.764 1140.73 895.52 1142.13L878.309 1151.47C876.664 1152.36 873.966 1153.58 872.345 1154.22L876.571 1162C878.337 1160.88 880.546 1159.52 882.381 1158.52L895.922 1151.17C894.751 1159.42 889.769 1171.22 883.017 1180.21L891.958 1183.55C897.294 1175.57 901.988 1163.85 903.36 1155.81C906.034 1160.59 908.605 1165.17 910.289 1168.27C910.976 1169.54 910.911 1170.47 909.709 1171.13C908.064 1172.02 904.923 1173.48 902.123 1174.51L906.546 1181.45C909.496 1180.09 913.488 1178.09 916.525 1176.44C920.258 1174.41 921.489 1170.79 919.639 1167.54C916.072 1161.12 911.21 1152.62 906.932 1145.19L914.525 1141.07C915.917 1140.31 917.912 1139.31 919.465 1138.55L915.308 1130.89C914.238 1131.64 911.971 1133.19 910.326 1134.09L902.86 1138.14C902.104 1136.75 901.319 1135.46 900.701 1134.32C899.773 1132.61 898.737 1130.55 898.102 1128.93ZM1020.24 1075.64L1025.64 1085.57C1027.88 1084.11 1032.05 1081.68 1035.65 1079.72L1069.63 1061.27C1072.29 1059.83 1075.65 1058.33 1077.21 1057.57L1071.81 1047.64C1070.24 1048.66 1067.59 1050.42 1064.62 1052.04L1030.64 1070.48C1027.35 1072.27 1022.62 1074.59 1020.24 1075.64ZM1170.14 969.344L1174.57 977.507C1176.46 976.315 1179.05 974.746 1181.27 973.543L1206.64 959.767C1208.85 958.564 1211.39 957.351 1213.61 956.309L1209.18 948.147C1207.2 949.631 1204.74 951.132 1202.59 952.3L1177.15 966.111C1175.06 967.245 1172.4 968.527 1170.14 969.344ZM1171.59 989.528L1176.09 997.817C1177.8 996.728 1180.13 995.296 1182.03 994.266L1199.43 984.818C1202.06 990.27 1203.56 995.6 1203.1 1000.93C1202.56 1005.98 1200.13 1012.05 1196.56 1016.2L1206.88 1017.56C1210.97 1011.65 1213.16 1004.07 1213.01 998.503C1212.88 992.837 1211.39 986.766 1208.23 980.042L1223.48 971.763C1225.25 970.801 1227.69 969.559 1229.34 968.826L1224.87 960.601C1223.36 961.747 1220.65 963.385 1219.32 964.107L1177.87 986.609C1175.91 987.674 1173.59 988.687 1171.59 989.528ZM1335.71 883.786C1336.45 884.695 1338.03 886.543 1339.98 888.926C1335.02 892.766 1330.52 896.107 1328.45 897.563C1326.62 898.881 1324.79 900.038 1322.8 901.201L1329.25 909.005C1331.09 907.268 1332.57 906.058 1334.35 904.516C1336.14 903.134 1340.57 899.667 1345.65 895.757C1347.98 898.675 1350.6 901.841 1353.08 904.914C1347.24 909.396 1341.87 913.54 1339.17 915.5C1337.28 916.853 1334.64 918.779 1332.97 919.769L1339.34 927.286C1340.59 926.116 1342.5 924.505 1344.95 922.522C1347.39 920.539 1352.79 916.297 1358.66 911.717C1362.56 916.482 1365.75 920.402 1367.07 922.065C1368.44 923.694 1369.83 925.805 1371.42 927.974L1379.64 921.382C1377.97 919.667 1376.1 917.732 1374.63 916.074C1373.18 914.319 1370 910.561 1366.17 905.922C1371.25 902.013 1375.93 898.407 1378.69 896.252C1380.89 894.567 1383.25 892.715 1384.89 891.661L1378.64 884.237C1377.27 885.636 1375.21 887.413 1373.01 889.259C1370.48 891.375 1365.77 895.078 1360.59 899.119C1358 896.017 1355.48 892.88 1353.13 890.06C1357.94 886.386 1362.33 883.016 1364.69 881.164C1366.45 879.88 1368.77 878.127 1370.09 877.244L1364.08 869.78C1362.8 871.047 1360.67 872.859 1358.85 874.338C1356.81 876.018 1352.42 879.388 1347.52 883.194C1345.47 880.621 1343.95 878.74 1343.34 877.922C1342.2 876.576 1340.85 874.527 1339.97 873.365L1331.84 879.664C1333.1 880.942 1334.34 882.157 1335.71 883.786ZM1518.22 787.645L1510.93 786.602C1509.91 787.732 1507.58 789.486 1504.86 790.964L1482.52 803.091C1480.63 804.122 1476.66 806.028 1474.82 806.702L1479.7 815.687C1480.99 814.902 1484.26 812.633 1486.92 811.19L1508.37 799.544C1509.42 804.792 1508.96 813.152 1507.36 820.165C1505.02 830.038 1499.4 843.083 1491.28 852.411L1501.51 855.706C1507.94 846.886 1512.78 835.736 1515.64 825.008C1524.72 827.536 1534.11 830.795 1541.31 834.257L1545.12 824.076C1538.92 821.547 1526.86 817.605 1517.64 815.565C1518.79 807.568 1518.66 798.874 1518.13 792.77C1518.01 791.196 1518.09 788.616 1518.22 787.645ZM1658.75 759.024C1660.12 761.555 1661.93 765.489 1662.93 768.226L1672.8 762.866C1671.14 760.41 1668.41 756.152 1667.42 754.317L1657.7 736.41C1665.8 735.041 1677.28 733.558 1685.66 733.436L1684.52 722.746C1677.15 723.059 1662.57 725.163 1652.75 727.299L1647.66 717.934C1646.26 715.34 1645.06 712.384 1644.11 710.032L1634.24 715.391C1635.88 717.365 1637.79 720.426 1638.99 722.641L1658.75 759.024Z" fill="#161616"/>
<path d="M-315.358 1994.43L-323.724 1993.81C-325.191 1995.18 -327.182 1996.35 -328.447 1997.03L-357.68 2012.91C-359.768 2014.04 -363.547 2015.68 -365.548 2016.52L-360.704 2025.44C-359.128 2024.42 -356.159 2022.65 -353.312 2021.1L-323.826 2005.09C-321.728 2010.92 -320.216 2019.44 -321.541 2026.96C-323.196 2036.13 -327.357 2045.52 -338.271 2055.29L-327.286 2059.08C-317.981 2049.36 -312.967 2038.52 -311.331 2027.8C-309.893 2017.93 -312.434 2006.61 -314.345 1999.62C-314.75 1998.12 -315.241 1996.01 -315.358 1994.43ZM-174.072 1921.33L-182.235 1925.76C-181.054 1927.33 -179.765 1929.25 -178.877 1930.73C-178.161 1931.9 -177.411 1933.13 -176.655 1934.53L-193.866 1943.87C-195.511 1944.76 -198.208 1945.98 -199.83 1946.62L-195.604 1954.4C-193.838 1953.28 -191.629 1951.91 -189.794 1950.92L-176.253 1943.57C-177.424 1951.82 -182.406 1963.62 -189.158 1972.61L-180.217 1975.95C-174.881 1967.97 -170.186 1956.25 -168.815 1948.21C-166.141 1952.99 -163.569 1957.57 -161.886 1960.67C-161.199 1961.94 -161.264 1962.87 -162.466 1963.53C-164.111 1964.42 -167.251 1965.88 -170.052 1966.91L-165.629 1973.85C-162.679 1972.49 -158.687 1970.49 -155.65 1968.84C-151.916 1966.81 -150.686 1963.19 -152.535 1959.94C-156.103 1953.52 -160.965 1945.01 -165.243 1937.59L-157.65 1933.46C-156.258 1932.71 -154.262 1931.71 -152.709 1930.95L-156.866 1923.29C-157.937 1924.03 -160.204 1925.59 -161.849 1926.49L-169.315 1930.54C-170.071 1929.15 -170.856 1927.85 -171.474 1926.72C-172.402 1925.01 -173.438 1922.95 -174.072 1921.33ZM-51.9312 1868.04L-46.5374 1877.97C-44.2993 1876.51 -40.1286 1874.08 -36.5219 1872.12L-2.54333 1853.67C0.114217 1852.23 3.47866 1850.73 5.03161 1849.97L-0.362193 1840.04C-1.93863 1841.06 -4.5853 1842.82 -7.55922 1844.43L-41.5378 1862.88C-44.8281 1864.67 -49.5502 1866.99 -51.9312 1868.04ZM97.9632 1761.74L102.395 1769.91C104.288 1768.71 106.877 1767.14 109.091 1765.94L134.464 1752.17C136.679 1750.96 139.216 1749.75 141.436 1748.71L137.004 1740.55C135.024 1742.03 132.562 1743.53 130.411 1744.7L104.974 1758.51C102.886 1759.64 100.223 1760.93 97.9632 1761.74ZM99.4183 1781.93L103.919 1790.22C105.622 1789.13 107.958 1787.7 109.856 1786.66L127.256 1777.22C129.889 1782.67 131.39 1788 130.926 1793.33C130.388 1798.37 127.951 1804.45 124.386 1808.6L134.709 1809.96C138.795 1804.05 140.987 1796.47 140.831 1790.9C140.704 1785.24 139.211 1779.16 136.052 1772.44L151.301 1764.16C153.073 1763.2 155.511 1761.96 157.162 1761.23L152.696 1753C151.188 1754.15 148.473 1755.78 147.144 1756.51L105.699 1779.01C103.737 1780.07 101.42 1781.09 99.4183 1781.93ZM263.539 1676.18C264.279 1677.09 265.855 1678.94 267.805 1681.32C262.844 1685.16 258.35 1688.51 256.272 1689.96C254.448 1691.28 252.619 1692.44 250.628 1693.6L257.078 1701.4C258.92 1699.67 260.393 1698.46 262.178 1696.91C263.967 1695.53 268.393 1692.07 273.48 1688.16C275.802 1691.07 278.422 1694.24 280.91 1697.31C275.069 1701.79 269.699 1705.94 266.995 1707.9C265.107 1709.25 262.466 1711.18 260.792 1712.17L267.167 1719.68C268.417 1718.52 270.328 1716.9 272.774 1714.92C275.219 1712.94 280.618 1708.7 286.488 1704.12C290.386 1708.88 293.579 1712.8 294.892 1714.46C296.268 1716.09 297.66 1718.2 299.247 1720.37L307.466 1713.78C305.797 1712.07 303.927 1710.13 302.454 1708.47C301.009 1706.72 297.821 1702.96 293.992 1698.32C299.079 1694.41 303.758 1690.81 306.52 1688.65C308.718 1686.97 311.072 1685.11 312.712 1684.06L306.469 1676.64C305.098 1678.03 303.032 1679.81 300.839 1681.66C298.301 1683.77 293.593 1687.48 288.414 1691.52C285.828 1688.42 283.306 1685.28 280.956 1682.46C285.761 1678.78 290.157 1675.41 292.511 1673.56C294.272 1672.28 296.597 1670.53 297.92 1669.64L291.901 1662.18C290.623 1663.45 288.493 1665.26 286.675 1666.74C284.637 1668.42 280.241 1671.79 275.343 1675.59C273.291 1673.02 271.778 1671.14 271.17 1670.32C270.029 1668.97 268.671 1666.93 267.794 1665.76L259.663 1672.06C260.93 1673.34 262.163 1674.56 263.539 1676.18ZM446.041 1580.04L438.757 1579C437.732 1580.13 435.407 1581.88 432.686 1583.36L410.35 1595.49C408.452 1596.52 404.489 1598.43 402.643 1599.1L407.522 1608.09C408.816 1607.3 412.09 1605.03 414.748 1603.59L436.198 1591.94C437.245 1597.19 436.787 1605.55 435.187 1612.56C432.847 1622.44 427.23 1635.48 419.104 1644.81L429.332 1648.1C435.768 1639.28 440.61 1628.13 443.47 1617.41C452.544 1619.94 461.933 1623.19 469.137 1626.66L472.949 1616.47C466.743 1613.95 454.689 1610 445.47 1607.96C446.618 1599.97 446.485 1591.27 445.957 1585.17C445.839 1583.59 445.913 1581.01 446.041 1580.04ZM586.575 1551.42C587.949 1553.95 589.757 1557.89 590.752 1560.62L600.622 1555.27C598.961 1552.81 596.24 1548.55 595.243 1546.72L585.521 1528.81C593.625 1527.44 605.109 1525.96 613.482 1525.83L612.347 1515.14C604.98 1515.46 590.392 1517.56 580.573 1519.7L575.489 1510.33C574.08 1507.74 572.885 1504.78 571.936 1502.43L562.065 1507.79C563.71 1509.76 565.618 1512.82 566.82 1515.04L586.575 1551.42ZM756.816 1412.29L748.451 1411.67C746.983 1413.04 744.993 1414.2 743.727 1414.89L714.494 1430.76C712.406 1431.9 708.628 1433.54 706.626 1434.38L711.471 1443.3C713.047 1442.28 716.015 1440.51 718.863 1438.96L748.349 1422.95C750.447 1428.77 751.959 1437.29 750.634 1444.81C748.979 1453.99 744.817 1463.37 733.904 1473.15L744.889 1476.93C754.194 1467.21 759.208 1456.38 760.843 1445.66C762.282 1435.79 759.741 1424.47 757.829 1417.47C757.424 1415.97 756.934 1413.86 756.816 1412.29ZM898.102 1339.18L889.94 1343.61C891.12 1345.19 892.41 1347.11 893.297 1348.59C894.014 1349.76 894.764 1350.99 895.52 1352.38L878.309 1361.73C876.664 1362.62 873.966 1363.84 872.345 1364.47L876.571 1372.26C878.337 1371.13 880.546 1369.77 882.381 1368.77L895.922 1361.42C894.751 1369.68 889.769 1381.48 883.017 1390.47L891.958 1393.81C897.294 1385.83 901.988 1374.1 903.36 1366.07C906.034 1370.84 908.605 1375.43 910.289 1378.53C910.976 1379.79 910.911 1380.73 909.709 1381.38C908.064 1382.28 904.923 1383.73 902.123 1384.76L906.546 1391.7C909.496 1390.35 913.488 1388.34 916.525 1386.69C920.258 1384.67 921.489 1381.05 919.639 1377.79C916.072 1371.37 911.21 1362.87 906.932 1355.44L914.525 1351.32C915.917 1350.57 917.912 1349.56 919.465 1348.8L915.308 1341.15C914.238 1341.89 911.971 1343.45 910.326 1344.34L902.86 1348.4C902.104 1347.01 901.319 1345.71 900.701 1344.57C899.773 1342.86 898.737 1340.8 898.102 1339.18ZM1020.24 1285.89L1025.64 1295.83C1027.88 1294.37 1032.05 1291.94 1035.65 1289.98L1069.63 1271.53C1072.29 1270.09 1075.65 1268.59 1077.21 1267.83L1071.81 1257.89C1070.24 1258.91 1067.59 1260.68 1064.62 1262.29L1030.64 1280.74C1027.35 1282.53 1022.62 1284.84 1020.24 1285.89ZM1170.14 1179.6L1174.57 1187.76C1176.46 1186.57 1179.05 1185 1181.27 1183.8L1206.64 1170.02C1208.85 1168.82 1211.39 1167.61 1213.61 1166.56L1209.18 1158.4C1207.2 1159.89 1204.74 1161.39 1202.59 1162.56L1177.15 1176.37C1175.06 1177.5 1172.4 1178.78 1170.14 1179.6ZM1171.59 1199.78L1176.09 1208.07C1177.8 1206.98 1180.13 1205.55 1182.03 1204.52L1199.43 1195.07C1202.06 1200.53 1203.56 1205.86 1203.1 1211.19C1202.56 1216.23 1200.13 1222.31 1196.56 1226.45L1206.88 1227.81C1210.97 1221.91 1213.16 1214.33 1213.01 1208.76C1212.88 1203.09 1211.39 1197.02 1208.23 1190.3L1223.48 1182.02C1225.25 1181.06 1227.69 1179.81 1229.34 1179.08L1224.87 1170.86C1223.36 1172 1220.65 1173.64 1219.32 1174.36L1177.87 1196.86C1175.91 1197.93 1173.59 1198.94 1171.59 1199.78ZM1335.71 1094.04C1336.45 1094.95 1338.03 1096.8 1339.98 1099.18C1335.02 1103.02 1330.52 1106.36 1328.45 1107.82C1326.62 1109.14 1324.79 1110.29 1322.8 1111.46L1329.25 1119.26C1331.09 1117.52 1332.57 1116.31 1334.35 1114.77C1336.14 1113.39 1340.57 1109.92 1345.65 1106.01C1347.98 1108.93 1350.6 1112.1 1353.08 1115.17C1347.24 1119.65 1341.87 1123.8 1339.17 1125.76C1337.28 1127.11 1334.64 1129.03 1332.97 1130.02L1339.34 1137.54C1340.59 1136.37 1342.5 1134.76 1344.95 1132.78C1347.39 1130.79 1352.79 1126.55 1358.66 1121.97C1362.56 1126.74 1365.75 1130.66 1367.07 1132.32C1368.44 1133.95 1369.83 1136.06 1371.42 1138.23L1379.64 1131.64C1377.97 1129.92 1376.1 1127.99 1374.63 1126.33C1373.18 1124.57 1370 1120.82 1366.17 1116.18C1371.25 1112.27 1375.93 1108.66 1378.69 1106.51C1380.89 1104.82 1383.25 1102.97 1384.89 1101.92L1378.64 1094.49C1377.27 1095.89 1375.21 1097.67 1373.01 1099.51C1370.48 1101.63 1365.77 1105.33 1360.59 1109.37C1358 1106.27 1355.48 1103.14 1353.13 1100.32C1357.94 1096.64 1362.33 1093.27 1364.69 1091.42C1366.45 1090.14 1368.77 1088.38 1370.09 1087.5L1364.08 1080.04C1362.8 1081.3 1360.67 1083.11 1358.85 1084.59C1356.81 1086.27 1352.42 1089.64 1347.52 1093.45C1345.47 1090.88 1343.95 1088.99 1343.34 1088.18C1342.2 1086.83 1340.85 1084.78 1339.97 1083.62L1331.84 1089.92C1333.1 1091.2 1334.34 1092.41 1335.71 1094.04ZM1518.22 997.9L1510.93 996.858C1509.91 997.988 1507.58 999.742 1504.86 1001.22L1482.52 1013.35C1480.63 1014.38 1476.66 1016.28 1474.82 1016.96L1479.7 1025.94C1480.99 1025.16 1484.26 1022.89 1486.92 1021.45L1508.37 1009.8C1509.42 1015.05 1508.96 1023.41 1507.36 1030.42C1505.02 1040.29 1499.4 1053.34 1491.28 1062.67L1501.51 1065.96C1507.94 1057.14 1512.78 1045.99 1515.64 1035.26C1524.72 1037.79 1534.11 1041.05 1541.31 1044.51L1545.12 1034.33C1538.92 1031.8 1526.86 1027.86 1517.64 1025.82C1518.79 1017.82 1518.66 1009.13 1518.13 1003.03C1518.01 1001.45 1518.09 998.871 1518.22 997.9ZM1658.75 969.279C1660.12 971.81 1661.93 975.744 1662.93 978.481L1672.8 973.122C1671.14 970.665 1668.41 966.407 1667.42 964.572L1657.7 946.666C1665.8 945.296 1677.28 943.813 1685.66 943.691L1684.52 933.001C1677.15 933.314 1662.57 935.418 1652.75 937.554L1647.66 928.189C1646.26 925.595 1645.06 922.639 1644.11 920.287L1634.24 925.647C1635.88 927.621 1637.79 930.682 1638.99 932.896L1658.75 969.279Z" fill="#161616"/>
</svg>
