<svg width="1440" height="1024" viewBox="0 0 1440 1024" fill="none" xmlns="http://www.w3.org/2000/svg">
<path d="M-154 1279C2.71617 1245.64 414.391 1175.9 807.36 1163.79C1298.57 1148.64 1901.87 1099.07 1985.36 1058.21C2052.16 1025.53 2046.3 1005.12 2035.01 999" stroke="#1D1D1D"/>
<path d="M-154 1215C-0.281152 1180.57 403.52 1108.59 788.973 1096.08C1270.79 1080.45 1862.55 1029.28 1944.45 987.116C2009.97 953.384 2004.21 932.317 1993.14 926" stroke="#1D1D1D"/>
<path d="M-154 1152C-3.27844 1116.38 392.649 1041.91 770.586 1028.97C1243.01 1012.79 1823.23 959.856 1903.53 916.231C1967.77 881.331 1962.13 859.536 1951.28 853" stroke="#1D1D1D"/>
<path d="M-154 1089C-6.27575 1052.19 381.778 975.227 752.2 961.854C1215.23 945.138 1783.91 890.43 1862.61 845.346C1925.58 809.279 1920.05 786.754 1909.41 780" stroke="#1D1D1D"/>
<path d="M-154 1025C-9.27305 987.118 370.907 907.913 733.813 894.151C1187.45 876.948 1744.59 820.646 1821.7 774.249C1883.39 737.132 1877.97 713.951 1867.55 707" stroke="#1D1D1D"/>
<path d="M-154 962C-12.2704 922.927 360.036 841.231 715.426 827.036C1159.66 809.292 1705.27 751.22 1780.78 703.364C1841.19 665.079 1835.88 641.169 1825.68 634" stroke="#1D1D1D"/>
<path d="M-154 899C-15.2677 858.736 349.166 774.55 697.04 759.921C1131.88 741.636 1665.95 681.793 1739.86 632.479C1799 593.027 1793.8 568.388 1783.81 561" stroke="#1D1D1D"/>
<path d="M-154 835C-18.265 793.663 338.295 707.236 678.653 692.218C1104.1 673.446 1626.63 612.01 1698.95 561.382C1756.8 520.88 1751.72 495.585 1741.95 488" stroke="#1D1D1D"/>
<path d="M-154 772C-21.2623 729.472 327.424 640.554 660.266 625.103C1076.32 605.79 1587.31 542.584 1658.03 490.497C1714.61 448.827 1709.64 422.803 1700.08 415" stroke="#1D1D1D"/>
<path d="M-154 707C-24.2596 663.281 316.553 571.872 641.88 555.989C1048.54 536.134 1547.99 471.157 1617.11 417.611C1672.41 374.775 1667.56 348.022 1658.21 340" stroke="#1D1D1D"/>
<path d="M-154 644C-27.2569 599.09 305.682 505.19 623.493 488.874C1020.76 468.479 1508.67 401.731 1576.2 346.726C1630.22 302.722 1625.47 275.24 1616.35 267" stroke="#1D1D1D"/>
<path d="M-154 580C-30.2542 534.017 294.811 437.876 605.106 421.17C992.975 400.289 1469.35 331.948 1535.28 275.63C1588.02 230.575 1583.39 202.437 1574.48 194" stroke="#1D1D1D"/>
<path d="M-154 517C-33.2515 469.826 283.94 371.194 586.72 354.056C965.194 332.633 1430.03 262.521 1494.36 204.744C1545.83 158.523 1541.31 129.656 1532.62 121" stroke="#1D1D1D"/>
<path d="M-154 454C-36.2488 405.516 273.07 304.144 568.333 286.53C937.413 264.511 1390.71 192.452 1453.45 133.07C1503.64 85.5649 1499.23 55.8962 1490.75 47" stroke="#1D1D1D"/>
<path d="M-154 390C-39.2461 340.444 262.199 236.83 549.946 218.826C909.631 196.321 1351.39 122.669 1412.53 61.9738C1461.44 13.4177 1457.15 -16.9071 1448.88 -26" stroke="#1D1D1D"/>
<path d="M-154 327C-42.2434 276.252 251.328 170.148 531.56 151.711C881.85 128.666 1312.07 53.2426 1371.61 -8.91148C1419.25 -58.6348 1415.06 -89.6885 1407.02 -99" stroke="#1D1D1D"/>
<path d="M-154 263C-45.1693 211.18 240.716 102.834 513.611 84.0082C854.73 60.4754 1273.68 -16.541 1331.67 -80.0082C1378.06 -130.782 1373.98 -162.492 1366.15 -172" stroke="#1D1D1D"/>
<path d="M-154 200C-48.1666 146.989 229.845 36.1525 495.224 16.8934C826.948 -7.18033 1234.36 -85.9672 1290.75 -150.893C1335.86 -202.834 1331.9 -235.273 1324.28 -245" stroke="#1D1D1D"/>
<path d="M-154 137C-51.1639 82.7978 218.974 -30.5295 476.838 -50.2213C799.167 -74.8361 1195.04 -155.393 1249.84 -221.779C1293.67 -274.887 1289.82 -308.055 1282.41 -318" stroke="#1D1D1D"/>
</svg>
