<svg width="449" height="14" viewBox="0 0 449 58" fill="none" xmlns="http://www.w3.org/2000/svg">
<path d="M21.0165 57.864C17.0325 57.864 13.1685 57.336 9.42447 56.28C5.72847 55.176 2.75247 53.76 0.496469 52.032L4.45647 43.248C6.61647 44.832 9.18447 46.104 12.1605 47.064C15.1365 48.024 18.1125 48.504 21.0885 48.504C24.4005 48.504 26.8485 48.024 28.4325 47.064C30.0165 46.056 30.8085 44.736 30.8085 43.104C30.8085 41.904 30.3285 40.92 29.3685 40.152C28.4565 39.336 27.2565 38.688 25.7685 38.208C24.3285 37.728 22.3605 37.2 19.8645 36.624C16.0245 35.712 12.8805 34.8 10.4325 33.888C7.98447 32.976 5.87247 31.512 4.09647 29.496C2.36847 27.48 1.50447 24.792 1.50447 21.432C1.50447 18.504 2.29647 15.864 3.88047 13.512C5.46447 11.112 7.84047 9.216 11.0085 7.824C14.2245 6.432 18.1365 5.736 22.7445 5.736C25.9605 5.736 29.1045 6.12 32.1765 6.888C35.2485 7.656 37.9365 8.76 40.2405 10.2L36.6405 19.056C31.9845 16.416 27.3285 15.096 22.6725 15.096C19.4085 15.096 16.9845 15.624 15.4005 16.68C13.8645 17.736 13.0965 19.128 13.0965 20.856C13.0965 22.584 13.9845 23.88 15.7605 24.744C17.5845 25.56 20.3445 26.376 24.0405 27.192C27.8805 28.104 31.0245 29.016 33.4725 29.928C35.9205 30.84 38.0085 32.28 39.7365 34.248C41.5125 36.216 42.4005 38.88 42.4005 42.24C42.4005 45.12 41.5845 47.76 39.9525 50.16C38.3685 52.512 35.9685 54.384 32.7525 55.776C29.5365 57.168 25.6245 57.864 21.0165 57.864ZM68.0105 57.576C63.9305 57.576 60.2585 56.736 56.9945 55.056C53.7785 53.328 51.2585 50.952 49.4345 47.928C47.6105 44.904 46.6985 41.472 46.6985 37.632C46.6985 33.792 47.6105 30.36 49.4345 27.336C51.2585 24.312 53.7785 21.96 56.9945 20.28C60.2585 18.552 63.9305 17.688 68.0105 17.688C72.0905 17.688 75.7385 18.552 78.9545 20.28C82.1705 21.96 84.6905 24.312 86.5145 27.336C88.3385 30.36 89.2505 33.792 89.2505 37.632C89.2505 41.472 88.3385 44.904 86.5145 47.928C84.6905 50.952 82.1705 53.328 78.9545 55.056C75.7385 56.736 72.0905 57.576 68.0105 57.576ZM68.0105 48.36C70.8905 48.36 73.2425 47.4 75.0665 45.48C76.9385 43.512 77.8745 40.896 77.8745 37.632C77.8745 34.368 76.9385 31.776 75.0665 29.856C73.2425 27.888 70.8905 26.904 68.0105 26.904C65.1305 26.904 62.7545 27.888 60.8825 29.856C59.0105 31.776 58.0745 34.368 58.0745 37.632C58.0745 40.896 59.0105 43.512 60.8825 45.48C62.7545 47.4 65.1305 48.36 68.0105 48.36ZM115.478 57.576C111.35 57.576 107.63 56.736 104.318 55.056C101.054 53.328 98.4862 50.952 96.6142 47.928C94.7902 44.904 93.8782 41.472 93.8782 37.632C93.8782 33.792 94.7902 30.36 96.6142 27.336C98.4862 24.312 101.054 21.96 104.318 20.28C107.63 18.552 111.35 17.688 115.478 17.688C119.558 17.688 123.11 18.552 126.134 20.28C129.206 21.96 131.438 24.384 132.83 27.552L124.118 32.232C122.102 28.68 119.198 26.904 115.406 26.904C112.478 26.904 110.054 27.864 108.134 29.784C106.214 31.704 105.254 34.32 105.254 37.632C105.254 40.944 106.214 43.56 108.134 45.48C110.054 47.4 112.478 48.36 115.406 48.36C119.246 48.36 122.15 46.584 124.118 43.032L132.83 47.784C131.438 50.856 129.206 53.256 126.134 54.984C123.11 56.712 119.558 57.576 115.478 57.576ZM139.297 18.264H150.529V57H139.297V18.264ZM144.913 12.864C142.849 12.864 141.169 12.264 139.873 11.064C138.577 9.864 137.929 8.376 137.929 6.6C137.929 4.824 138.577 3.336 139.873 2.136C141.169 0.935997 142.849 0.335996 144.913 0.335996C146.977 0.335996 148.657 0.911997 149.953 2.064C151.249 3.216 151.897 4.656 151.897 6.384C151.897 8.256 151.249 9.816 149.953 11.064C148.657 12.264 146.977 12.864 144.913 12.864ZM200.266 18.264V57H189.538V52.536C186.754 55.896 182.722 57.576 177.442 57.576C173.794 57.576 170.482 56.76 167.506 55.128C164.578 53.496 162.274 51.168 160.594 48.144C158.914 45.12 158.074 41.616 158.074 37.632C158.074 33.648 158.914 30.144 160.594 27.12C162.274 24.096 164.578 21.768 167.506 20.136C170.482 18.504 173.794 17.688 177.442 17.688C182.386 17.688 186.25 19.248 189.034 22.368V18.264H200.266ZM179.386 48.36C182.218 48.36 184.57 47.4 186.442 45.48C188.314 43.512 189.25 40.896 189.25 37.632C189.25 34.368 188.314 31.776 186.442 29.856C184.57 27.888 182.218 26.904 179.386 26.904C176.506 26.904 174.13 27.888 172.258 29.856C170.386 31.776 169.45 34.368 169.45 37.632C169.45 40.896 170.386 43.512 172.258 45.48C174.13 47.4 176.506 48.36 179.386 48.36ZM224.56 57.576C220.192 57.576 216.784 56.424 214.336 54.12C211.888 51.768 210.664 48.456 210.664 44.184V3.576H221.896V43.536C221.896 45.168 222.304 46.44 223.12 47.352C223.984 48.216 225.184 48.648 226.72 48.648C227.296 48.648 227.872 48.576 228.448 48.432C229.072 48.288 229.552 48.12 229.888 47.928L230.392 56.64C228.52 57.264 226.576 57.576 224.56 57.576ZM257.089 6.6H268.753V47.496H294.025V57H257.089V6.6ZM299.75 18.264H310.982V57H299.75V18.264ZM305.366 12.864C303.302 12.864 301.622 12.264 300.326 11.064C299.03 9.864 298.382 8.376 298.382 6.6C298.382 4.824 299.03 3.336 300.326 2.136C301.622 0.935997 303.302 0.335996 305.366 0.335996C307.43 0.335996 309.11 0.911997 310.406 2.064C311.702 3.216 312.35 4.656 312.35 6.384C312.35 8.256 311.702 9.816 310.406 11.064C309.11 12.264 307.43 12.864 305.366 12.864ZM344.951 17.688C349.751 17.688 353.615 19.128 356.543 22.008C359.519 24.888 361.007 29.16 361.007 34.824V57H349.775V36.552C349.775 33.48 349.103 31.2 347.759 29.712C346.415 28.176 344.471 27.408 341.927 27.408C339.095 27.408 336.839 28.296 335.159 30.072C333.479 31.8 332.639 34.392 332.639 37.848V57H321.407V18.264H332.135V22.8C333.623 21.168 335.471 19.92 337.679 19.056C339.887 18.144 342.311 17.688 344.951 17.688ZM387.82 41.808L382.42 47.136V57H371.188V3.576H382.42V33.816L398.836 18.264H412.228L396.1 34.68L413.668 57H400.06L387.82 41.808ZM430.486 57.576C427.27 57.576 424.126 57.192 421.054 56.424C417.982 55.608 415.534 54.6 413.71 53.4L417.454 45.336C419.182 46.44 421.27 47.352 423.718 48.072C426.166 48.744 428.566 49.08 430.918 49.08C435.67 49.08 438.046 47.904 438.046 45.552C438.046 44.448 437.398 43.656 436.102 43.176C434.806 42.696 432.814 42.288 430.126 41.952C426.958 41.472 424.342 40.92 422.278 40.296C420.214 39.672 418.414 38.568 416.878 36.984C415.39 35.4 414.646 33.144 414.646 30.216C414.646 27.768 415.342 25.608 416.734 23.736C418.174 21.816 420.238 20.328 422.926 19.272C425.662 18.216 428.878 17.688 432.574 17.688C435.31 17.688 438.022 18 440.71 18.624C443.446 19.2 445.702 20.016 447.478 21.072L443.734 29.064C440.326 27.144 436.606 26.184 432.574 26.184C430.174 26.184 428.374 26.52 427.174 27.192C425.974 27.864 425.374 28.728 425.374 29.784C425.374 30.984 426.022 31.824 427.318 32.304C428.614 32.784 430.678 33.24 433.51 33.672C436.678 34.2 439.27 34.776 441.286 35.4C443.302 35.976 445.054 37.056 446.542 38.64C448.03 40.224 448.774 42.432 448.774 45.264C448.774 47.664 448.054 49.8 446.614 51.672C445.174 53.544 443.062 55.008 440.278 56.064C437.542 57.072 434.278 57.576 430.486 57.576Z" fill="url(#paint0_radial)"/>
<path d="M21.0165 57.864C17.0325 57.864 13.1685 57.336 9.42447 56.28C5.72847 55.176 2.75247 53.76 0.496469 52.032L4.45647 43.248C6.61647 44.832 9.18447 46.104 12.1605 47.064C15.1365 48.024 18.1125 48.504 21.0885 48.504C24.4005 48.504 26.8485 48.024 28.4325 47.064C30.0165 46.056 30.8085 44.736 30.8085 43.104C30.8085 41.904 30.3285 40.92 29.3685 40.152C28.4565 39.336 27.2565 38.688 25.7685 38.208C24.3285 37.728 22.3605 37.2 19.8645 36.624C16.0245 35.712 12.8805 34.8 10.4325 33.888C7.98447 32.976 5.87247 31.512 4.09647 29.496C2.36847 27.48 1.50447 24.792 1.50447 21.432C1.50447 18.504 2.29647 15.864 3.88047 13.512C5.46447 11.112 7.84047 9.216 11.0085 7.824C14.2245 6.432 18.1365 5.736 22.7445 5.736C25.9605 5.736 29.1045 6.12 32.1765 6.888C35.2485 7.656 37.9365 8.76 40.2405 10.2L36.6405 19.056C31.9845 16.416 27.3285 15.096 22.6725 15.096C19.4085 15.096 16.9845 15.624 15.4005 16.68C13.8645 17.736 13.0965 19.128 13.0965 20.856C13.0965 22.584 13.9845 23.88 15.7605 24.744C17.5845 25.56 20.3445 26.376 24.0405 27.192C27.8805 28.104 31.0245 29.016 33.4725 29.928C35.9205 30.84 38.0085 32.28 39.7365 34.248C41.5125 36.216 42.4005 38.88 42.4005 42.24C42.4005 45.12 41.5845 47.76 39.9525 50.16C38.3685 52.512 35.9685 54.384 32.7525 55.776C29.5365 57.168 25.6245 57.864 21.0165 57.864ZM68.0105 57.576C63.9305 57.576 60.2585 56.736 56.9945 55.056C53.7785 53.328 51.2585 50.952 49.4345 47.928C47.6105 44.904 46.6985 41.472 46.6985 37.632C46.6985 33.792 47.6105 30.36 49.4345 27.336C51.2585 24.312 53.7785 21.96 56.9945 20.28C60.2585 18.552 63.9305 17.688 68.0105 17.688C72.0905 17.688 75.7385 18.552 78.9545 20.28C82.1705 21.96 84.6905 24.312 86.5145 27.336C88.3385 30.36 89.2505 33.792 89.2505 37.632C89.2505 41.472 88.3385 44.904 86.5145 47.928C84.6905 50.952 82.1705 53.328 78.9545 55.056C75.7385 56.736 72.0905 57.576 68.0105 57.576ZM68.0105 48.36C70.8905 48.36 73.2425 47.4 75.0665 45.48C76.9385 43.512 77.8745 40.896 77.8745 37.632C77.8745 34.368 76.9385 31.776 75.0665 29.856C73.2425 27.888 70.8905 26.904 68.0105 26.904C65.1305 26.904 62.7545 27.888 60.8825 29.856C59.0105 31.776 58.0745 34.368 58.0745 37.632C58.0745 40.896 59.0105 43.512 60.8825 45.48C62.7545 47.4 65.1305 48.36 68.0105 48.36ZM115.478 57.576C111.35 57.576 107.63 56.736 104.318 55.056C101.054 53.328 98.4862 50.952 96.6142 47.928C94.7902 44.904 93.8782 41.472 93.8782 37.632C93.8782 33.792 94.7902 30.36 96.6142 27.336C98.4862 24.312 101.054 21.96 104.318 20.28C107.63 18.552 111.35 17.688 115.478 17.688C119.558 17.688 123.11 18.552 126.134 20.28C129.206 21.96 131.438 24.384 132.83 27.552L124.118 32.232C122.102 28.68 119.198 26.904 115.406 26.904C112.478 26.904 110.054 27.864 108.134 29.784C106.214 31.704 105.254 34.32 105.254 37.632C105.254 40.944 106.214 43.56 108.134 45.48C110.054 47.4 112.478 48.36 115.406 48.36C119.246 48.36 122.15 46.584 124.118 43.032L132.83 47.784C131.438 50.856 129.206 53.256 126.134 54.984C123.11 56.712 119.558 57.576 115.478 57.576ZM139.297 18.264H150.529V57H139.297V18.264ZM144.913 12.864C142.849 12.864 141.169 12.264 139.873 11.064C138.577 9.864 137.929 8.376 137.929 6.6C137.929 4.824 138.577 3.336 139.873 2.136C141.169 0.935997 142.849 0.335996 144.913 0.335996C146.977 0.335996 148.657 0.911997 149.953 2.064C151.249 3.216 151.897 4.656 151.897 6.384C151.897 8.256 151.249 9.816 149.953 11.064C148.657 12.264 146.977 12.864 144.913 12.864ZM200.266 18.264V57H189.538V52.536C186.754 55.896 182.722 57.576 177.442 57.576C173.794 57.576 170.482 56.76 167.506 55.128C164.578 53.496 162.274 51.168 160.594 48.144C158.914 45.12 158.074 41.616 158.074 37.632C158.074 33.648 158.914 30.144 160.594 27.12C162.274 24.096 164.578 21.768 167.506 20.136C170.482 18.504 173.794 17.688 177.442 17.688C182.386 17.688 186.25 19.248 189.034 22.368V18.264H200.266ZM179.386 48.36C182.218 48.36 184.57 47.4 186.442 45.48C188.314 43.512 189.25 40.896 189.25 37.632C189.25 34.368 188.314 31.776 186.442 29.856C184.57 27.888 182.218 26.904 179.386 26.904C176.506 26.904 174.13 27.888 172.258 29.856C170.386 31.776 169.45 34.368 169.45 37.632C169.45 40.896 170.386 43.512 172.258 45.48C174.13 47.4 176.506 48.36 179.386 48.36ZM224.56 57.576C220.192 57.576 216.784 56.424 214.336 54.12C211.888 51.768 210.664 48.456 210.664 44.184V3.576H221.896V43.536C221.896 45.168 222.304 46.44 223.12 47.352C223.984 48.216 225.184 48.648 226.72 48.648C227.296 48.648 227.872 48.576 228.448 48.432C229.072 48.288 229.552 48.12 229.888 47.928L230.392 56.64C228.52 57.264 226.576 57.576 224.56 57.576ZM257.089 6.6H268.753V47.496H294.025V57H257.089V6.6ZM299.75 18.264H310.982V57H299.75V18.264ZM305.366 12.864C303.302 12.864 301.622 12.264 300.326 11.064C299.03 9.864 298.382 8.376 298.382 6.6C298.382 4.824 299.03 3.336 300.326 2.136C301.622 0.935997 303.302 0.335996 305.366 0.335996C307.43 0.335996 309.11 0.911997 310.406 2.064C311.702 3.216 312.35 4.656 312.35 6.384C312.35 8.256 311.702 9.816 310.406 11.064C309.11 12.264 307.43 12.864 305.366 12.864ZM344.951 17.688C349.751 17.688 353.615 19.128 356.543 22.008C359.519 24.888 361.007 29.16 361.007 34.824V57H349.775V36.552C349.775 33.48 349.103 31.2 347.759 29.712C346.415 28.176 344.471 27.408 341.927 27.408C339.095 27.408 336.839 28.296 335.159 30.072C333.479 31.8 332.639 34.392 332.639 37.848V57H321.407V18.264H332.135V22.8C333.623 21.168 335.471 19.92 337.679 19.056C339.887 18.144 342.311 17.688 344.951 17.688ZM387.82 41.808L382.42 47.136V57H371.188V3.576H382.42V33.816L398.836 18.264H412.228L396.1 34.68L413.668 57H400.06L387.82 41.808ZM430.486 57.576C427.27 57.576 424.126 57.192 421.054 56.424C417.982 55.608 415.534 54.6 413.71 53.4L417.454 45.336C419.182 46.44 421.27 47.352 423.718 48.072C426.166 48.744 428.566 49.08 430.918 49.08C435.67 49.08 438.046 47.904 438.046 45.552C438.046 44.448 437.398 43.656 436.102 43.176C434.806 42.696 432.814 42.288 430.126 41.952C426.958 41.472 424.342 40.92 422.278 40.296C420.214 39.672 418.414 38.568 416.878 36.984C415.39 35.4 414.646 33.144 414.646 30.216C414.646 27.768 415.342 25.608 416.734 23.736C418.174 21.816 420.238 20.328 422.926 19.272C425.662 18.216 428.878 17.688 432.574 17.688C435.31 17.688 438.022 18 440.71 18.624C443.446 19.2 445.702 20.016 447.478 21.072L443.734 29.064C440.326 27.144 436.606 26.184 432.574 26.184C430.174 26.184 428.374 26.52 427.174 27.192C425.974 27.864 425.374 28.728 425.374 29.784C425.374 30.984 426.022 31.824 427.318 32.304C428.614 32.784 430.678 33.24 433.51 33.672C436.678 34.2 439.27 34.776 441.286 35.4C443.302 35.976 445.054 37.056 446.542 38.64C448.03 40.224 448.774 42.432 448.774 45.264C448.774 47.664 448.054 49.8 446.614 51.672C445.174 53.544 443.062 55.008 440.278 56.064C437.542 57.072 434.278 57.576 430.486 57.576Z" fill="url(#paint1_radial)" fill-opacity="0.2"/>
<defs>
<radialGradient id="paint0_radial" cx="0" cy="0" r="1" gradientUnits="userSpaceOnUse" gradientTransform="translate(56 31) rotate(4.3987) scale(182.538 939.654)">
<stop stop-color="#523568"/>
<stop offset="1" stop-color="#C0A3D7" stop-opacity="0.29"/>
</radialGradient>
<radialGradient id="paint1_radial" cx="0" cy="0" r="1" gradientUnits="userSpaceOnUse" gradientTransform="translate(362 49) rotate(-164.836) scale(166.29 856.018)">
<stop stop-color="#E646EA"/>
<stop offset="1" stop-color="#5C50DE"/>
</radialGradient>
</defs>
</svg>
