<svg width="149" height="60" viewBox="0 0 149 60" fill="none" xmlns="http://www.w3.org/2000/svg">
<path d="M38.344 42.72V31.968H59.656V42.72H38.344ZM59.656 15.984V26.304H38.344V15.984H59.656ZM32.44 10.224V51.6H38.344V48.48H59.656V51.504H65.8V10.224H32.44ZM108.76 38.592C106.936 39.792 104.92 40.944 103.144 41.904C101.8 40.896 100.648 39.84 99.688 38.592H108.76ZM88.408 31.488H105.4V34.128H88.408V31.488ZM99.832 20.496V16.8H93.976V20.496H86.872C90.904 17.856 94.456 14.928 96.808 12.192C99.304 14.976 103.048 17.952 107.128 20.496H99.832ZM88.408 24.912H105.4V27.408H88.408V24.912ZM112.6 35.904C112.168 36.24 111.688 36.624 111.16 36.96V22.896C112.888 23.808 114.616 24.672 116.296 25.392C117.256 23.712 118.552 21.696 119.896 20.304C112.408 17.904 104.776 13.152 99.4 7.2H93.688C89.896 12.144 82.12 17.712 74.248 20.832C75.4 21.984 76.84 24.192 77.56 25.536C79.288 24.768 81.064 23.904 82.744 22.992V46.08C80.92 46.224 79.24 46.368 77.752 46.464L78.52 51.696C84.04 51.216 91.576 50.544 98.68 49.824L98.584 44.784L88.408 45.648V38.592H93.928C98.152 46.128 105.064 50.448 115.528 52.176C116.248 50.64 117.784 48.384 118.936 47.184C114.664 46.704 110.968 45.792 107.8 44.496C110.776 43.008 113.992 41.136 116.728 39.312L112.6 35.904Z" fill="url(#paint0_linear)"/>
<path d="M14.4544 31.52C14.4544 31.824 14.4384 32.168 14.4064 32.552H4.51844C4.67844 33.416 5.06244 34.104 5.67044 34.616C6.27844 35.112 7.04644 35.36 7.97444 35.36C9.25444 35.36 10.2144 34.912 10.8544 34.016L13.9024 34.52C13.4864 35.704 12.7104 36.624 11.5744 37.28C10.4384 37.92 9.17444 38.24 7.78244 38.24C5.86244 38.24 4.28644 37.632 3.05444 36.416C1.82244 35.184 1.20644 33.616 1.20644 31.712C1.20644 29.808 1.82244 28.248 3.05444 27.032C4.30244 25.8 5.89444 25.184 7.83044 25.184C9.75044 25.184 11.3344 25.792 12.5824 27.008C13.8304 28.224 14.4544 29.728 14.4544 31.52ZM7.83044 27.896C7.07844 27.896 6.42244 28.112 5.86244 28.544C5.30244 28.96 4.91044 29.52 4.68644 30.224H10.9264C10.7024 29.536 10.3104 28.976 9.75044 28.544C9.20644 28.112 8.56644 27.896 7.83044 27.896ZM25.0788 38L28.9188 31.568L25.5108 25.424H29.0868L31.1988 29.384H31.7028L33.8868 25.424H37.4148L34.0068 31.4L37.8948 38H34.2468L31.7748 33.512H31.2708L28.6548 38H25.0788ZM49.8271 38V21.08H53.0671V38H49.8271ZM68.8244 38V25.952H65.5124V22.88H67.9604C68.5364 22.88 68.8244 22.592 68.8244 22.016V21.08H72.1844V38H68.8244ZM86.1908 42.92V25.424H88.7108L89.2868 27.392C89.7668 26.8 90.4148 26.288 91.2308 25.856C92.0628 25.408 92.9908 25.184 94.0148 25.184C95.8068 25.184 97.2708 25.8 98.4068 27.032C99.5588 28.248 100.135 29.808 100.135 31.712C100.135 33.616 99.5588 35.184 98.4068 36.416C97.2708 37.632 95.8068 38.24 94.0148 38.24C92.1908 38.24 90.6628 37.56 89.4308 36.2V42.92H86.1908ZM93.1268 35.36C94.1988 35.36 95.0708 35.016 95.7428 34.328C96.4148 33.64 96.7508 32.768 96.7508 31.712C96.7508 30.656 96.4148 29.784 95.7428 29.096C95.0708 28.408 94.1988 28.064 93.1268 28.064C92.0388 28.064 91.1508 28.408 90.4628 29.096C89.7748 29.784 89.4308 30.656 89.4308 31.712C89.4308 32.768 89.7748 33.64 90.4628 34.328C91.1508 35.016 92.0388 35.36 93.1268 35.36ZM117.362 38.24C115.89 38.24 114.666 37.888 113.69 37.184C112.73 36.48 112.122 35.512 111.866 34.28L114.866 33.776C115.298 34.944 116.194 35.528 117.554 35.528C118.098 35.528 118.562 35.44 118.946 35.264C119.346 35.072 119.546 34.792 119.546 34.424C119.546 34.04 119.33 33.736 118.898 33.512C118.466 33.288 117.866 33.096 117.098 32.936C116.618 32.84 116.194 32.736 115.826 32.624C115.474 32.512 115.082 32.352 114.65 32.144C114.218 31.936 113.866 31.704 113.594 31.448C113.322 31.176 113.09 30.832 112.898 30.416C112.706 30 112.61 29.528 112.61 29C112.61 27.736 113.082 26.784 114.026 26.144C114.986 25.504 116.162 25.184 117.554 25.184C118.85 25.184 119.962 25.52 120.89 26.192C121.834 26.864 122.474 27.784 122.81 28.952L119.81 29.456C119.41 28.416 118.658 27.896 117.554 27.896C117.09 27.896 116.69 28 116.354 28.208C116.018 28.4 115.85 28.656 115.85 28.976C115.85 29.36 116.082 29.664 116.546 29.888C117.01 30.112 117.682 30.328 118.562 30.536C119.122 30.664 119.602 30.808 120.002 30.968C120.418 31.112 120.858 31.328 121.322 31.616C121.802 31.888 122.162 32.256 122.402 32.72C122.658 33.168 122.786 33.696 122.786 34.304C122.786 35.424 122.338 36.36 121.442 37.112C120.546 37.864 119.186 38.24 117.362 38.24ZM148.023 31.52C148.023 31.824 148.007 32.168 147.975 32.552H138.087C138.247 33.416 138.631 34.104 139.239 34.616C139.847 35.112 140.615 35.36 141.543 35.36C142.823 35.36 143.783 34.912 144.423 34.016L147.471 34.52C147.055 35.704 146.279 36.624 145.143 37.28C144.007 37.92 142.743 38.24 141.351 38.24C139.431 38.24 137.855 37.632 136.623 36.416C135.391 35.184 134.775 33.616 134.775 31.712C134.775 29.808 135.391 28.248 136.623 27.032C137.871 25.8 139.463 25.184 141.399 25.184C143.319 25.184 144.903 25.792 146.151 27.008C147.399 28.224 148.023 29.728 148.023 31.52ZM141.399 27.896C140.647 27.896 139.991 28.112 139.431 28.544C138.871 28.96 138.479 29.52 138.255 30.224H144.495C144.271 29.536 143.879 28.976 143.319 28.544C142.775 28.112 142.135 27.896 141.399 27.896Z" fill="#E7E7E7"/>
<defs>
<linearGradient id="paint0_linear" x1="29" y1="11.5" x2="144" y2="60" gradientUnits="userSpaceOnUse">
<stop stop-color="#613E6A"/>
<stop offset="1" stop-color="#553C81"/>
</linearGradient>
</defs>
</svg>
